<?xml version="1.0" encoding="utf-8" standalone="no"?>
<!DOCTYPE svg PUBLIC "-//W3C//DTD SVG 1.1//EN"
  "http://www.w3.org/Graphics/SVG/1.1/DTD/svg11.dtd">
<!-- Created with matplotlib (https://matplotlib.org/) -->
<svg height="345.6pt" version="1.1" viewBox="0 0 460.8 345.6" width="460.8pt" xmlns="http://www.w3.org/2000/svg" xmlns:xlink="http://www.w3.org/1999/xlink">
 <metadata>
  <rdf:RDF xmlns:cc="http://creativecommons.org/ns#" xmlns:dc="http://purl.org/dc/elements/1.1/" xmlns:rdf="http://www.w3.org/1999/02/22-rdf-syntax-ns#">
   <cc:Work>
    <dc:type rdf:resource="http://purl.org/dc/dcmitype/StillImage"/>
    <dc:date>2021-03-23T14:30:10.272292</dc:date>
    <dc:format>image/svg+xml</dc:format>
    <dc:creator>
     <cc:Agent>
      <dc:title>Matplotlib v3.3.3, https://matplotlib.org/</dc:title>
     </cc:Agent>
    </dc:creator>
   </cc:Work>
  </rdf:RDF>
 </metadata>
 <defs>
  <style type="text/css">*{stroke-linecap:butt;stroke-linejoin:round;}</style>
 </defs>
 <g id="figure_1">
  <g id="patch_1">
   <path d="M 0 345.6 
L 460.8 345.6 
L 460.8 0 
L 0 0 
z
" style="fill:#ffffff;"/>
  </g>
  <g id="axes_1">
   <g id="patch_2">
    <path d="M 27.648 223.9488 
L 414.72 223.9488 
L 414.72 17.28 
L 27.648 17.28 
z
" style="fill:#ffffff;"/>
   </g>
   <g id="legend_1">
    <g id="patch_3">
     <path d="M 407.582546 50.84531 
L 458.71864 50.84531 
Q 459.41864 50.84531 459.41864 50.14531 
L 459.41864 9.39656 
Q 459.41864 8.69656 458.71864 8.69656 
L 407.582546 8.69656 
Q 406.882546 8.69656 406.882546 9.39656 
L 406.882546 50.14531 
Q 406.882546 50.84531 407.582546 50.84531 
z
" style="fill:#ffffff;opacity:0.8;stroke:#cccccc;stroke-linejoin:miter;"/>
    </g>
    <g id="text_1">
     <!-- [ CPU Average ] - 6.8% -->
     <g transform="translate(408.282546 12.756013)scale(0.035 -0.035)">
      <defs>
       <path d="M 8.59375 75.984375 
L 29.296875 75.984375 
L 29.296875 69 
L 17.578125 69 
L 17.578125 -6.203125 
L 29.296875 -6.203125 
L 29.296875 -13.1875 
L 8.59375 -13.1875 
z
" id="DejaVuSans-91"/>
       <path id="DejaVuSans-32"/>
       <path d="M 64.40625 67.28125 
L 64.40625 56.890625 
Q 59.421875 61.53125 53.78125 63.8125 
Q 48.140625 66.109375 41.796875 66.109375 
Q 29.296875 66.109375 22.65625 58.46875 
Q 16.015625 50.828125 16.015625 36.375 
Q 16.015625 21.96875 22.65625 14.328125 
Q 29.296875 6.6875 41.796875 6.6875 
Q 48.140625 6.6875 53.78125 8.984375 
Q 59.421875 11.28125 64.40625 15.921875 
L 64.40625 5.609375 
Q 59.234375 2.09375 53.4375 0.328125 
Q 47.65625 -1.421875 41.21875 -1.421875 
Q 24.65625 -1.421875 15.125 8.703125 
Q 5.609375 18.84375 5.609375 36.375 
Q 5.609375 53.953125 15.125 64.078125 
Q 24.65625 74.21875 41.21875 74.21875 
Q 47.75 74.21875 53.53125 72.484375 
Q 59.328125 70.75 64.40625 67.28125 
z
" id="DejaVuSans-67"/>
       <path d="M 19.671875 64.796875 
L 19.671875 37.40625 
L 32.078125 37.40625 
Q 38.96875 37.40625 42.71875 40.96875 
Q 46.484375 44.53125 46.484375 51.125 
Q 46.484375 57.671875 42.71875 61.234375 
Q 38.96875 64.796875 32.078125 64.796875 
z
M 9.8125 72.90625 
L 32.078125 72.90625 
Q 44.34375 72.90625 50.609375 67.359375 
Q 56.890625 61.8125 56.890625 51.125 
Q 56.890625 40.328125 50.609375 34.8125 
Q 44.34375 29.296875 32.078125 29.296875 
L 19.671875 29.296875 
L 19.671875 0 
L 9.8125 0 
z
" id="DejaVuSans-80"/>
       <path d="M 8.6875 72.90625 
L 18.609375 72.90625 
L 18.609375 28.609375 
Q 18.609375 16.890625 22.84375 11.734375 
Q 27.09375 6.59375 36.625 6.59375 
Q 46.09375 6.59375 50.34375 11.734375 
Q 54.59375 16.890625 54.59375 28.609375 
L 54.59375 72.90625 
L 64.5 72.90625 
L 64.5 27.390625 
Q 64.5 13.140625 57.4375 5.859375 
Q 50.390625 -1.421875 36.625 -1.421875 
Q 22.796875 -1.421875 15.734375 5.859375 
Q 8.6875 13.140625 8.6875 27.390625 
z
" id="DejaVuSans-85"/>
       <path d="M 34.1875 63.1875 
L 20.796875 26.90625 
L 47.609375 26.90625 
z
M 28.609375 72.90625 
L 39.796875 72.90625 
L 67.578125 0 
L 57.328125 0 
L 50.6875 18.703125 
L 17.828125 18.703125 
L 11.1875 0 
L 0.78125 0 
z
" id="DejaVuSans-65"/>
       <path d="M 2.984375 54.6875 
L 12.5 54.6875 
L 29.59375 8.796875 
L 46.6875 54.6875 
L 56.203125 54.6875 
L 35.6875 0 
L 23.484375 0 
z
" id="DejaVuSans-118"/>
       <path d="M 56.203125 29.59375 
L 56.203125 25.203125 
L 14.890625 25.203125 
Q 15.484375 15.921875 20.484375 11.0625 
Q 25.484375 6.203125 34.421875 6.203125 
Q 39.59375 6.203125 44.453125 7.46875 
Q 49.3125 8.734375 54.109375 11.28125 
L 54.109375 2.78125 
Q 49.265625 0.734375 44.1875 -0.34375 
Q 39.109375 -1.421875 33.890625 -1.421875 
Q 20.796875 -1.421875 13.15625 6.1875 
Q 5.515625 13.8125 5.515625 26.8125 
Q 5.515625 40.234375 12.765625 48.109375 
Q 20.015625 56 32.328125 56 
Q 43.359375 56 49.78125 48.890625 
Q 56.203125 41.796875 56.203125 29.59375 
z
M 47.21875 32.234375 
Q 47.125 39.59375 43.09375 43.984375 
Q 39.0625 48.390625 32.421875 48.390625 
Q 24.90625 48.390625 20.390625 44.140625 
Q 15.875 39.890625 15.1875 32.171875 
z
" id="DejaVuSans-101"/>
       <path d="M 41.109375 46.296875 
Q 39.59375 47.171875 37.8125 47.578125 
Q 36.03125 48 33.890625 48 
Q 26.265625 48 22.1875 43.046875 
Q 18.109375 38.09375 18.109375 28.8125 
L 18.109375 0 
L 9.078125 0 
L 9.078125 54.6875 
L 18.109375 54.6875 
L 18.109375 46.1875 
Q 20.953125 51.171875 25.484375 53.578125 
Q 30.03125 56 36.53125 56 
Q 37.453125 56 38.578125 55.875 
Q 39.703125 55.765625 41.0625 55.515625 
z
" id="DejaVuSans-114"/>
       <path d="M 34.28125 27.484375 
Q 23.390625 27.484375 19.1875 25 
Q 14.984375 22.515625 14.984375 16.5 
Q 14.984375 11.71875 18.140625 8.90625 
Q 21.296875 6.109375 26.703125 6.109375 
Q 34.1875 6.109375 38.703125 11.40625 
Q 43.21875 16.703125 43.21875 25.484375 
L 43.21875 27.484375 
z
M 52.203125 31.203125 
L 52.203125 0 
L 43.21875 0 
L 43.21875 8.296875 
Q 40.140625 3.328125 35.546875 0.953125 
Q 30.953125 -1.421875 24.3125 -1.421875 
Q 15.921875 -1.421875 10.953125 3.296875 
Q 6 8.015625 6 15.921875 
Q 6 25.140625 12.171875 29.828125 
Q 18.359375 34.515625 30.609375 34.515625 
L 43.21875 34.515625 
L 43.21875 35.40625 
Q 43.21875 41.609375 39.140625 45 
Q 35.0625 48.390625 27.6875 48.390625 
Q 23 48.390625 18.546875 47.265625 
Q 14.109375 46.140625 10.015625 43.890625 
L 10.015625 52.203125 
Q 14.9375 54.109375 19.578125 55.046875 
Q 24.21875 56 28.609375 56 
Q 40.484375 56 46.34375 49.84375 
Q 52.203125 43.703125 52.203125 31.203125 
z
" id="DejaVuSans-97"/>
       <path d="M 45.40625 27.984375 
Q 45.40625 37.75 41.375 43.109375 
Q 37.359375 48.484375 30.078125 48.484375 
Q 22.859375 48.484375 18.828125 43.109375 
Q 14.796875 37.75 14.796875 27.984375 
Q 14.796875 18.265625 18.828125 12.890625 
Q 22.859375 7.515625 30.078125 7.515625 
Q 37.359375 7.515625 41.375 12.890625 
Q 45.40625 18.265625 45.40625 27.984375 
z
M 54.390625 6.78125 
Q 54.390625 -7.171875 48.1875 -13.984375 
Q 42 -20.796875 29.203125 -20.796875 
Q 24.46875 -20.796875 20.265625 -20.09375 
Q 16.0625 -19.390625 12.109375 -17.921875 
L 12.109375 -9.1875 
Q 16.0625 -11.328125 19.921875 -12.34375 
Q 23.78125 -13.375 27.78125 -13.375 
Q 36.625 -13.375 41.015625 -8.765625 
Q 45.40625 -4.15625 45.40625 5.171875 
L 45.40625 9.625 
Q 42.625 4.78125 38.28125 2.390625 
Q 33.9375 0 27.875 0 
Q 17.828125 0 11.671875 7.65625 
Q 5.515625 15.328125 5.515625 27.984375 
Q 5.515625 40.671875 11.671875 48.328125 
Q 17.828125 56 27.875 56 
Q 33.9375 56 38.28125 53.609375 
Q 42.625 51.21875 45.40625 46.390625 
L 45.40625 54.6875 
L 54.390625 54.6875 
z
" id="DejaVuSans-103"/>
       <path d="M 30.421875 75.984375 
L 30.421875 -13.1875 
L 9.71875 -13.1875 
L 9.71875 -6.203125 
L 21.390625 -6.203125 
L 21.390625 69 
L 9.71875 69 
L 9.71875 75.984375 
z
" id="DejaVuSans-93"/>
       <path d="M 4.890625 31.390625 
L 31.203125 31.390625 
L 31.203125 23.390625 
L 4.890625 23.390625 
z
" id="DejaVuSans-45"/>
       <path d="M 33.015625 40.375 
Q 26.375 40.375 22.484375 35.828125 
Q 18.609375 31.296875 18.609375 23.390625 
Q 18.609375 15.53125 22.484375 10.953125 
Q 26.375 6.390625 33.015625 6.390625 
Q 39.65625 6.390625 43.53125 10.953125 
Q 47.40625 15.53125 47.40625 23.390625 
Q 47.40625 31.296875 43.53125 35.828125 
Q 39.65625 40.375 33.015625 40.375 
z
M 52.59375 71.296875 
L 52.59375 62.3125 
Q 48.875 64.0625 45.09375 64.984375 
Q 41.3125 65.921875 37.59375 65.921875 
Q 27.828125 65.921875 22.671875 59.328125 
Q 17.53125 52.734375 16.796875 39.40625 
Q 19.671875 43.65625 24.015625 45.921875 
Q 28.375 48.1875 33.59375 48.1875 
Q 44.578125 48.1875 50.953125 41.515625 
Q 57.328125 34.859375 57.328125 23.390625 
Q 57.328125 12.15625 50.6875 5.359375 
Q 44.046875 -1.421875 33.015625 -1.421875 
Q 20.359375 -1.421875 13.671875 8.265625 
Q 6.984375 17.96875 6.984375 36.375 
Q 6.984375 53.65625 15.1875 63.9375 
Q 23.390625 74.21875 37.203125 74.21875 
Q 40.921875 74.21875 44.703125 73.484375 
Q 48.484375 72.75 52.59375 71.296875 
z
" id="DejaVuSans-54"/>
       <path d="M 10.6875 12.40625 
L 21 12.40625 
L 21 0 
L 10.6875 0 
z
" id="DejaVuSans-46"/>
       <path d="M 31.78125 34.625 
Q 24.75 34.625 20.71875 30.859375 
Q 16.703125 27.09375 16.703125 20.515625 
Q 16.703125 13.921875 20.71875 10.15625 
Q 24.75 6.390625 31.78125 6.390625 
Q 38.8125 6.390625 42.859375 10.171875 
Q 46.921875 13.96875 46.921875 20.515625 
Q 46.921875 27.09375 42.890625 30.859375 
Q 38.875 34.625 31.78125 34.625 
z
M 21.921875 38.8125 
Q 15.578125 40.375 12.03125 44.71875 
Q 8.5 49.078125 8.5 55.328125 
Q 8.5 64.0625 14.71875 69.140625 
Q 20.953125 74.21875 31.78125 74.21875 
Q 42.671875 74.21875 48.875 69.140625 
Q 55.078125 64.0625 55.078125 55.328125 
Q 55.078125 49.078125 51.53125 44.71875 
Q 48 40.375 41.703125 38.8125 
Q 48.828125 37.15625 52.796875 32.3125 
Q 56.78125 27.484375 56.78125 20.515625 
Q 56.78125 9.90625 50.3125 4.234375 
Q 43.84375 -1.421875 31.78125 -1.421875 
Q 19.734375 -1.421875 13.25 4.234375 
Q 6.78125 9.90625 6.78125 20.515625 
Q 6.78125 27.484375 10.78125 32.3125 
Q 14.796875 37.15625 21.921875 38.8125 
z
M 18.3125 54.390625 
Q 18.3125 48.734375 21.84375 45.5625 
Q 25.390625 42.390625 31.78125 42.390625 
Q 38.140625 42.390625 41.71875 45.5625 
Q 45.3125 48.734375 45.3125 54.390625 
Q 45.3125 60.0625 41.71875 63.234375 
Q 38.140625 66.40625 31.78125 66.40625 
Q 25.390625 66.40625 21.84375 63.234375 
Q 18.3125 60.0625 18.3125 54.390625 
z
" id="DejaVuSans-56"/>
       <path d="M 72.703125 32.078125 
Q 68.453125 32.078125 66.03125 28.46875 
Q 63.625 24.859375 63.625 18.40625 
Q 63.625 12.0625 66.03125 8.421875 
Q 68.453125 4.78125 72.703125 4.78125 
Q 76.859375 4.78125 79.265625 8.421875 
Q 81.6875 12.0625 81.6875 18.40625 
Q 81.6875 24.8125 79.265625 28.4375 
Q 76.859375 32.078125 72.703125 32.078125 
z
M 72.703125 38.28125 
Q 80.421875 38.28125 84.953125 32.90625 
Q 89.5 27.546875 89.5 18.40625 
Q 89.5 9.28125 84.9375 3.921875 
Q 80.375 -1.421875 72.703125 -1.421875 
Q 64.890625 -1.421875 60.34375 3.921875 
Q 55.8125 9.28125 55.8125 18.40625 
Q 55.8125 27.59375 60.375 32.9375 
Q 64.9375 38.28125 72.703125 38.28125 
z
M 22.3125 68.015625 
Q 18.109375 68.015625 15.6875 64.375 
Q 13.28125 60.75 13.28125 54.390625 
Q 13.28125 47.953125 15.671875 44.328125 
Q 18.0625 40.71875 22.3125 40.71875 
Q 26.5625 40.71875 28.96875 44.328125 
Q 31.390625 47.953125 31.390625 54.390625 
Q 31.390625 60.6875 28.953125 64.34375 
Q 26.515625 68.015625 22.3125 68.015625 
z
M 66.40625 74.21875 
L 74.21875 74.21875 
L 28.609375 -1.421875 
L 20.796875 -1.421875 
z
M 22.3125 74.21875 
Q 30.03125 74.21875 34.609375 68.875 
Q 39.203125 63.53125 39.203125 54.390625 
Q 39.203125 45.171875 34.640625 39.84375 
Q 30.078125 34.515625 22.3125 34.515625 
Q 14.546875 34.515625 10.03125 39.859375 
Q 5.515625 45.21875 5.515625 54.390625 
Q 5.515625 63.484375 10.046875 68.84375 
Q 14.59375 74.21875 22.3125 74.21875 
z
" id="DejaVuSans-37"/>
      </defs>
      <use xlink:href="#DejaVuSans-91"/>
      <use x="39.013672" xlink:href="#DejaVuSans-32"/>
      <use x="70.800781" xlink:href="#DejaVuSans-67"/>
      <use x="140.625" xlink:href="#DejaVuSans-80"/>
      <use x="200.927734" xlink:href="#DejaVuSans-85"/>
      <use x="274.121094" xlink:href="#DejaVuSans-32"/>
      <use x="305.908203" xlink:href="#DejaVuSans-65"/>
      <use x="368.441406" xlink:href="#DejaVuSans-118"/>
      <use x="427.621094" xlink:href="#DejaVuSans-101"/>
      <use x="489.144531" xlink:href="#DejaVuSans-114"/>
      <use x="530.257812" xlink:href="#DejaVuSans-97"/>
      <use x="591.537109" xlink:href="#DejaVuSans-103"/>
      <use x="655.013672" xlink:href="#DejaVuSans-101"/>
      <use x="716.537109" xlink:href="#DejaVuSans-32"/>
      <use x="748.324219" xlink:href="#DejaVuSans-93"/>
      <use x="787.337891" xlink:href="#DejaVuSans-32"/>
      <use x="819.125" xlink:href="#DejaVuSans-45"/>
      <use x="855.208984" xlink:href="#DejaVuSans-32"/>
      <use x="886.996094" xlink:href="#DejaVuSans-54"/>
      <use x="950.619141" xlink:href="#DejaVuSans-46"/>
      <use x="982.40625" xlink:href="#DejaVuSans-56"/>
      <use x="1046.029297" xlink:href="#DejaVuSans-37"/>
     </g>
    </g>
    <g id="line2d_1">
     <path d="M 451.01864 11.531013 
L 458.01864 11.531013 
" style="fill:none;stroke:#ff0000;stroke-linecap:round;"/>
    </g>
    <g id="line2d_2">
     <defs>
      <path d="M -0 0.707107 
L 0.424264 0 
L 0 -0.707107 
L -0.424264 -0 
z
" id="mdc036fa08d" style="stroke:#ff0000;stroke-linejoin:miter;"/>
     </defs>
     <g>
      <use style="fill:#ff0000;stroke:#ff0000;stroke-linejoin:miter;" x="454.51864" xlink:href="#mdc036fa08d" y="11.531013"/>
     </g>
    </g>
    <g id="text_2">
     <!-- kworker/u80: - 93% -->
     <g transform="translate(413.960203 17.893357)scale(0.035 -0.035)">
      <defs>
       <path d="M 9.078125 75.984375 
L 18.109375 75.984375 
L 18.109375 31.109375 
L 44.921875 54.6875 
L 56.390625 54.6875 
L 27.390625 29.109375 
L 57.625 0 
L 45.90625 0 
L 18.109375 26.703125 
L 18.109375 0 
L 9.078125 0 
z
" id="DejaVuSans-107"/>
       <path d="M 4.203125 54.6875 
L 13.1875 54.6875 
L 24.421875 12.015625 
L 35.59375 54.6875 
L 46.1875 54.6875 
L 57.421875 12.015625 
L 68.609375 54.6875 
L 77.59375 54.6875 
L 63.28125 0 
L 52.6875 0 
L 40.921875 44.828125 
L 29.109375 0 
L 18.5 0 
z
" id="DejaVuSans-119"/>
       <path d="M 30.609375 48.390625 
Q 23.390625 48.390625 19.1875 42.75 
Q 14.984375 37.109375 14.984375 27.296875 
Q 14.984375 17.484375 19.15625 11.84375 
Q 23.34375 6.203125 30.609375 6.203125 
Q 37.796875 6.203125 41.984375 11.859375 
Q 46.1875 17.53125 46.1875 27.296875 
Q 46.1875 37.015625 41.984375 42.703125 
Q 37.796875 48.390625 30.609375 48.390625 
z
M 30.609375 56 
Q 42.328125 56 49.015625 48.375 
Q 55.71875 40.765625 55.71875 27.296875 
Q 55.71875 13.875 49.015625 6.21875 
Q 42.328125 -1.421875 30.609375 -1.421875 
Q 18.84375 -1.421875 12.171875 6.21875 
Q 5.515625 13.875 5.515625 27.296875 
Q 5.515625 40.765625 12.171875 48.375 
Q 18.84375 56 30.609375 56 
z
" id="DejaVuSans-111"/>
       <path d="M 25.390625 72.90625 
L 33.6875 72.90625 
L 8.296875 -9.28125 
L 0 -9.28125 
z
" id="DejaVuSans-47"/>
       <path d="M 8.5 21.578125 
L 8.5 54.6875 
L 17.484375 54.6875 
L 17.484375 21.921875 
Q 17.484375 14.15625 20.5 10.265625 
Q 23.53125 6.390625 29.59375 6.390625 
Q 36.859375 6.390625 41.078125 11.03125 
Q 45.3125 15.671875 45.3125 23.6875 
L 45.3125 54.6875 
L 54.296875 54.6875 
L 54.296875 0 
L 45.3125 0 
L 45.3125 8.40625 
Q 42.046875 3.421875 37.71875 1 
Q 33.40625 -1.421875 27.6875 -1.421875 
Q 18.265625 -1.421875 13.375 4.4375 
Q 8.5 10.296875 8.5 21.578125 
z
M 31.109375 56 
z
" id="DejaVuSans-117"/>
       <path d="M 31.78125 66.40625 
Q 24.171875 66.40625 20.328125 58.90625 
Q 16.5 51.421875 16.5 36.375 
Q 16.5 21.390625 20.328125 13.890625 
Q 24.171875 6.390625 31.78125 6.390625 
Q 39.453125 6.390625 43.28125 13.890625 
Q 47.125 21.390625 47.125 36.375 
Q 47.125 51.421875 43.28125 58.90625 
Q 39.453125 66.40625 31.78125 66.40625 
z
M 31.78125 74.21875 
Q 44.046875 74.21875 50.515625 64.515625 
Q 56.984375 54.828125 56.984375 36.375 
Q 56.984375 17.96875 50.515625 8.265625 
Q 44.046875 -1.421875 31.78125 -1.421875 
Q 19.53125 -1.421875 13.0625 8.265625 
Q 6.59375 17.96875 6.59375 36.375 
Q 6.59375 54.828125 13.0625 64.515625 
Q 19.53125 74.21875 31.78125 74.21875 
z
" id="DejaVuSans-48"/>
       <path d="M 11.71875 12.40625 
L 22.015625 12.40625 
L 22.015625 0 
L 11.71875 0 
z
M 11.71875 51.703125 
L 22.015625 51.703125 
L 22.015625 39.3125 
L 11.71875 39.3125 
z
" id="DejaVuSans-58"/>
       <path d="M 10.984375 1.515625 
L 10.984375 10.5 
Q 14.703125 8.734375 18.5 7.8125 
Q 22.3125 6.890625 25.984375 6.890625 
Q 35.75 6.890625 40.890625 13.453125 
Q 46.046875 20.015625 46.78125 33.40625 
Q 43.953125 29.203125 39.59375 26.953125 
Q 35.25 24.703125 29.984375 24.703125 
Q 19.046875 24.703125 12.671875 31.3125 
Q 6.296875 37.9375 6.296875 49.421875 
Q 6.296875 60.640625 12.9375 67.421875 
Q 19.578125 74.21875 30.609375 74.21875 
Q 43.265625 74.21875 49.921875 64.515625 
Q 56.59375 54.828125 56.59375 36.375 
Q 56.59375 19.140625 48.40625 8.859375 
Q 40.234375 -1.421875 26.421875 -1.421875 
Q 22.703125 -1.421875 18.890625 -0.6875 
Q 15.09375 0.046875 10.984375 1.515625 
z
M 30.609375 32.421875 
Q 37.25 32.421875 41.125 36.953125 
Q 45.015625 41.5 45.015625 49.421875 
Q 45.015625 57.28125 41.125 61.84375 
Q 37.25 66.40625 30.609375 66.40625 
Q 23.96875 66.40625 20.09375 61.84375 
Q 16.21875 57.28125 16.21875 49.421875 
Q 16.21875 41.5 20.09375 36.953125 
Q 23.96875 32.421875 30.609375 32.421875 
z
" id="DejaVuSans-57"/>
       <path d="M 40.578125 39.3125 
Q 47.65625 37.796875 51.625 33 
Q 55.609375 28.21875 55.609375 21.1875 
Q 55.609375 10.40625 48.1875 4.484375 
Q 40.765625 -1.421875 27.09375 -1.421875 
Q 22.515625 -1.421875 17.65625 -0.515625 
Q 12.796875 0.390625 7.625 2.203125 
L 7.625 11.71875 
Q 11.71875 9.328125 16.59375 8.109375 
Q 21.484375 6.890625 26.8125 6.890625 
Q 36.078125 6.890625 40.9375 10.546875 
Q 45.796875 14.203125 45.796875 21.1875 
Q 45.796875 27.640625 41.28125 31.265625 
Q 36.765625 34.90625 28.71875 34.90625 
L 20.21875 34.90625 
L 20.21875 43.015625 
L 29.109375 43.015625 
Q 36.375 43.015625 40.234375 45.921875 
Q 44.09375 48.828125 44.09375 54.296875 
Q 44.09375 59.90625 40.109375 62.90625 
Q 36.140625 65.921875 28.71875 65.921875 
Q 24.65625 65.921875 20.015625 65.03125 
Q 15.375 64.15625 9.8125 62.3125 
L 9.8125 71.09375 
Q 15.4375 72.65625 20.34375 73.4375 
Q 25.25 74.21875 29.59375 74.21875 
Q 40.828125 74.21875 47.359375 69.109375 
Q 53.90625 64.015625 53.90625 55.328125 
Q 53.90625 49.265625 50.4375 45.09375 
Q 46.96875 40.921875 40.578125 39.3125 
z
" id="DejaVuSans-51"/>
      </defs>
      <use xlink:href="#DejaVuSans-107"/>
      <use x="57.910156" xlink:href="#DejaVuSans-119"/>
      <use x="139.697266" xlink:href="#DejaVuSans-111"/>
      <use x="200.878906" xlink:href="#DejaVuSans-114"/>
      <use x="241.992188" xlink:href="#DejaVuSans-107"/>
      <use x="296.277344" xlink:href="#DejaVuSans-101"/>
      <use x="357.800781" xlink:href="#DejaVuSans-114"/>
      <use x="398.914062" xlink:href="#DejaVuSans-47"/>
      <use x="432.605469" xlink:href="#DejaVuSans-117"/>
      <use x="495.984375" xlink:href="#DejaVuSans-56"/>
      <use x="559.607422" xlink:href="#DejaVuSans-48"/>
      <use x="623.230469" xlink:href="#DejaVuSans-58"/>
      <use x="656.921875" xlink:href="#DejaVuSans-32"/>
      <use x="688.708984" xlink:href="#DejaVuSans-45"/>
      <use x="724.792969" xlink:href="#DejaVuSans-32"/>
      <use x="756.580078" xlink:href="#DejaVuSans-57"/>
      <use x="820.203125" xlink:href="#DejaVuSans-51"/>
      <use x="883.826172" xlink:href="#DejaVuSans-37"/>
     </g>
    </g>
    <g id="line2d_3">
     <path d="M 451.01864 16.668357 
L 458.01864 16.668357 
" style="fill:none;stroke:#1f77b4;stroke-linecap:square;stroke-width:1.5;"/>
    </g>
    <g id="line2d_4"/>
    <g id="text_3">
     <!-- screen - 78% -->
     <g transform="translate(425.318796 23.030701)scale(0.035 -0.035)">
      <defs>
       <path d="M 44.28125 53.078125 
L 44.28125 44.578125 
Q 40.484375 46.53125 36.375 47.5 
Q 32.28125 48.484375 27.875 48.484375 
Q 21.1875 48.484375 17.84375 46.4375 
Q 14.5 44.390625 14.5 40.28125 
Q 14.5 37.15625 16.890625 35.375 
Q 19.28125 33.59375 26.515625 31.984375 
L 29.59375 31.296875 
Q 39.15625 29.25 43.1875 25.515625 
Q 47.21875 21.78125 47.21875 15.09375 
Q 47.21875 7.46875 41.1875 3.015625 
Q 35.15625 -1.421875 24.609375 -1.421875 
Q 20.21875 -1.421875 15.453125 -0.5625 
Q 10.6875 0.296875 5.421875 2 
L 5.421875 11.28125 
Q 10.40625 8.6875 15.234375 7.390625 
Q 20.0625 6.109375 24.8125 6.109375 
Q 31.15625 6.109375 34.5625 8.28125 
Q 37.984375 10.453125 37.984375 14.40625 
Q 37.984375 18.0625 35.515625 20.015625 
Q 33.0625 21.96875 24.703125 23.78125 
L 21.578125 24.515625 
Q 13.234375 26.265625 9.515625 29.90625 
Q 5.8125 33.546875 5.8125 39.890625 
Q 5.8125 47.609375 11.28125 51.796875 
Q 16.75 56 26.8125 56 
Q 31.78125 56 36.171875 55.265625 
Q 40.578125 54.546875 44.28125 53.078125 
z
" id="DejaVuSans-115"/>
       <path d="M 48.78125 52.59375 
L 48.78125 44.1875 
Q 44.96875 46.296875 41.140625 47.34375 
Q 37.3125 48.390625 33.40625 48.390625 
Q 24.65625 48.390625 19.8125 42.84375 
Q 14.984375 37.3125 14.984375 27.296875 
Q 14.984375 17.28125 19.8125 11.734375 
Q 24.65625 6.203125 33.40625 6.203125 
Q 37.3125 6.203125 41.140625 7.25 
Q 44.96875 8.296875 48.78125 10.40625 
L 48.78125 2.09375 
Q 45.015625 0.34375 40.984375 -0.53125 
Q 36.96875 -1.421875 32.421875 -1.421875 
Q 20.0625 -1.421875 12.78125 6.34375 
Q 5.515625 14.109375 5.515625 27.296875 
Q 5.515625 40.671875 12.859375 48.328125 
Q 20.21875 56 33.015625 56 
Q 37.15625 56 41.109375 55.140625 
Q 45.0625 54.296875 48.78125 52.59375 
z
" id="DejaVuSans-99"/>
       <path d="M 54.890625 33.015625 
L 54.890625 0 
L 45.90625 0 
L 45.90625 32.71875 
Q 45.90625 40.484375 42.875 44.328125 
Q 39.84375 48.1875 33.796875 48.1875 
Q 26.515625 48.1875 22.3125 43.546875 
Q 18.109375 38.921875 18.109375 30.90625 
L 18.109375 0 
L 9.078125 0 
L 9.078125 54.6875 
L 18.109375 54.6875 
L 18.109375 46.1875 
Q 21.34375 51.125 25.703125 53.5625 
Q 30.078125 56 35.796875 56 
Q 45.21875 56 50.046875 50.171875 
Q 54.890625 44.34375 54.890625 33.015625 
z
" id="DejaVuSans-110"/>
       <path d="M 8.203125 72.90625 
L 55.078125 72.90625 
L 55.078125 68.703125 
L 28.609375 0 
L 18.3125 0 
L 43.21875 64.59375 
L 8.203125 64.59375 
z
" id="DejaVuSans-55"/>
      </defs>
      <use xlink:href="#DejaVuSans-115"/>
      <use x="52.099609" xlink:href="#DejaVuSans-99"/>
      <use x="107.080078" xlink:href="#DejaVuSans-114"/>
      <use x="145.943359" xlink:href="#DejaVuSans-101"/>
      <use x="207.466797" xlink:href="#DejaVuSans-101"/>
      <use x="268.990234" xlink:href="#DejaVuSans-110"/>
      <use x="332.369141" xlink:href="#DejaVuSans-32"/>
      <use x="364.15625" xlink:href="#DejaVuSans-45"/>
      <use x="400.240234" xlink:href="#DejaVuSans-32"/>
      <use x="432.027344" xlink:href="#DejaVuSans-55"/>
      <use x="495.650391" xlink:href="#DejaVuSans-56"/>
      <use x="559.273438" xlink:href="#DejaVuSans-37"/>
     </g>
    </g>
    <g id="line2d_5">
     <path d="M 451.01864 21.805701 
L 458.01864 21.805701 
" style="fill:none;stroke:#ff7f0e;stroke-linecap:square;stroke-width:1.5;"/>
    </g>
    <g id="line2d_6"/>
    <g id="text_4">
     <!-- yes - 79% -->
     <g transform="translate(430.903484 28.168044)scale(0.035 -0.035)">
      <defs>
       <path d="M 32.171875 -5.078125 
Q 28.375 -14.84375 24.75 -17.8125 
Q 21.140625 -20.796875 15.09375 -20.796875 
L 7.90625 -20.796875 
L 7.90625 -13.28125 
L 13.1875 -13.28125 
Q 16.890625 -13.28125 18.9375 -11.515625 
Q 21 -9.765625 23.484375 -3.21875 
L 25.09375 0.875 
L 2.984375 54.6875 
L 12.5 54.6875 
L 29.59375 11.921875 
L 46.6875 54.6875 
L 56.203125 54.6875 
z
" id="DejaVuSans-121"/>
      </defs>
      <use xlink:href="#DejaVuSans-121"/>
      <use x="59.179688" xlink:href="#DejaVuSans-101"/>
      <use x="120.703125" xlink:href="#DejaVuSans-115"/>
      <use x="172.802734" xlink:href="#DejaVuSans-32"/>
      <use x="204.589844" xlink:href="#DejaVuSans-45"/>
      <use x="240.673828" xlink:href="#DejaVuSans-32"/>
      <use x="272.460938" xlink:href="#DejaVuSans-55"/>
      <use x="336.083984" xlink:href="#DejaVuSans-57"/>
      <use x="399.707031" xlink:href="#DejaVuSans-37"/>
     </g>
    </g>
    <g id="line2d_7">
     <path d="M 451.01864 26.943044 
L 458.01864 26.943044 
" style="fill:none;stroke:#2ca02c;stroke-linecap:square;stroke-width:1.5;"/>
    </g>
    <g id="line2d_8"/>
    <g id="text_5">
     <!-- sshd - 6% -->
     <g transform="translate(431.092156 33.305388)scale(0.035 -0.035)">
      <defs>
       <path d="M 54.890625 33.015625 
L 54.890625 0 
L 45.90625 0 
L 45.90625 32.71875 
Q 45.90625 40.484375 42.875 44.328125 
Q 39.84375 48.1875 33.796875 48.1875 
Q 26.515625 48.1875 22.3125 43.546875 
Q 18.109375 38.921875 18.109375 30.90625 
L 18.109375 0 
L 9.078125 0 
L 9.078125 75.984375 
L 18.109375 75.984375 
L 18.109375 46.1875 
Q 21.34375 51.125 25.703125 53.5625 
Q 30.078125 56 35.796875 56 
Q 45.21875 56 50.046875 50.171875 
Q 54.890625 44.34375 54.890625 33.015625 
z
" id="DejaVuSans-104"/>
       <path d="M 45.40625 46.390625 
L 45.40625 75.984375 
L 54.390625 75.984375 
L 54.390625 0 
L 45.40625 0 
L 45.40625 8.203125 
Q 42.578125 3.328125 38.25 0.953125 
Q 33.9375 -1.421875 27.875 -1.421875 
Q 17.96875 -1.421875 11.734375 6.484375 
Q 5.515625 14.40625 5.515625 27.296875 
Q 5.515625 40.1875 11.734375 48.09375 
Q 17.96875 56 27.875 56 
Q 33.9375 56 38.25 53.625 
Q 42.578125 51.265625 45.40625 46.390625 
z
M 14.796875 27.296875 
Q 14.796875 17.390625 18.875 11.75 
Q 22.953125 6.109375 30.078125 6.109375 
Q 37.203125 6.109375 41.296875 11.75 
Q 45.40625 17.390625 45.40625 27.296875 
Q 45.40625 37.203125 41.296875 42.84375 
Q 37.203125 48.484375 30.078125 48.484375 
Q 22.953125 48.484375 18.875 42.84375 
Q 14.796875 37.203125 14.796875 27.296875 
z
" id="DejaVuSans-100"/>
      </defs>
      <use xlink:href="#DejaVuSans-115"/>
      <use x="52.099609" xlink:href="#DejaVuSans-115"/>
      <use x="104.199219" xlink:href="#DejaVuSans-104"/>
      <use x="167.578125" xlink:href="#DejaVuSans-100"/>
      <use x="231.054688" xlink:href="#DejaVuSans-32"/>
      <use x="262.841797" xlink:href="#DejaVuSans-45"/>
      <use x="298.925781" xlink:href="#DejaVuSans-32"/>
      <use x="330.712891" xlink:href="#DejaVuSans-54"/>
      <use x="394.335938" xlink:href="#DejaVuSans-37"/>
     </g>
    </g>
    <g id="line2d_9">
     <path d="M 451.01864 32.080388 
L 458.01864 32.080388 
" style="fill:none;stroke:#d62728;stroke-linecap:square;stroke-width:1.5;"/>
    </g>
    <g id="line2d_10"/>
    <g id="text_6">
     <!-- kworker/u80 - 5% -->
     <g transform="translate(417.36614 38.442732)scale(0.035 -0.035)">
      <defs>
       <path d="M 10.796875 72.90625 
L 49.515625 72.90625 
L 49.515625 64.59375 
L 19.828125 64.59375 
L 19.828125 46.734375 
Q 21.96875 47.46875 24.109375 47.828125 
Q 26.265625 48.1875 28.421875 48.1875 
Q 40.625 48.1875 47.75 41.5 
Q 54.890625 34.8125 54.890625 23.390625 
Q 54.890625 11.625 47.5625 5.09375 
Q 40.234375 -1.421875 26.90625 -1.421875 
Q 22.3125 -1.421875 17.546875 -0.640625 
Q 12.796875 0.140625 7.71875 1.703125 
L 7.71875 11.625 
Q 12.109375 9.234375 16.796875 8.0625 
Q 21.484375 6.890625 26.703125 6.890625 
Q 35.15625 6.890625 40.078125 11.328125 
Q 45.015625 15.765625 45.015625 23.390625 
Q 45.015625 31 40.078125 35.4375 
Q 35.15625 39.890625 26.703125 39.890625 
Q 22.75 39.890625 18.8125 39.015625 
Q 14.890625 38.140625 10.796875 36.28125 
z
" id="DejaVuSans-53"/>
      </defs>
      <use xlink:href="#DejaVuSans-107"/>
      <use x="57.910156" xlink:href="#DejaVuSans-119"/>
      <use x="139.697266" xlink:href="#DejaVuSans-111"/>
      <use x="200.878906" xlink:href="#DejaVuSans-114"/>
      <use x="241.992188" xlink:href="#DejaVuSans-107"/>
      <use x="296.277344" xlink:href="#DejaVuSans-101"/>
      <use x="357.800781" xlink:href="#DejaVuSans-114"/>
      <use x="398.914062" xlink:href="#DejaVuSans-47"/>
      <use x="432.605469" xlink:href="#DejaVuSans-117"/>
      <use x="495.984375" xlink:href="#DejaVuSans-56"/>
      <use x="559.607422" xlink:href="#DejaVuSans-48"/>
      <use x="623.230469" xlink:href="#DejaVuSans-32"/>
      <use x="655.017578" xlink:href="#DejaVuSans-45"/>
      <use x="691.101562" xlink:href="#DejaVuSans-32"/>
      <use x="722.888672" xlink:href="#DejaVuSans-53"/>
      <use x="786.511719" xlink:href="#DejaVuSans-37"/>
     </g>
    </g>
    <g id="line2d_11">
     <path d="M 451.01864 37.217732 
L 458.01864 37.217732 
" style="fill:none;stroke:#9467bd;stroke-linecap:square;stroke-width:1.5;"/>
    </g>
    <g id="line2d_12"/>
    <g id="text_7">
     <!-- guider - 0% -->
     <g transform="translate(427.951999 43.580076)scale(0.035 -0.035)">
      <defs>
       <path d="M 9.421875 54.6875 
L 18.40625 54.6875 
L 18.40625 0 
L 9.421875 0 
z
M 9.421875 75.984375 
L 18.40625 75.984375 
L 18.40625 64.59375 
L 9.421875 64.59375 
z
" id="DejaVuSans-105"/>
      </defs>
      <use xlink:href="#DejaVuSans-103"/>
      <use x="63.476562" xlink:href="#DejaVuSans-117"/>
      <use x="126.855469" xlink:href="#DejaVuSans-105"/>
      <use x="154.638672" xlink:href="#DejaVuSans-100"/>
      <use x="218.115234" xlink:href="#DejaVuSans-101"/>
      <use x="279.638672" xlink:href="#DejaVuSans-114"/>
      <use x="320.751953" xlink:href="#DejaVuSans-32"/>
      <use x="352.539062" xlink:href="#DejaVuSans-45"/>
      <use x="388.623047" xlink:href="#DejaVuSans-32"/>
      <use x="420.410156" xlink:href="#DejaVuSans-48"/>
      <use x="484.033203" xlink:href="#DejaVuSans-37"/>
     </g>
    </g>
    <g id="line2d_13">
     <path d="M 451.01864 42.355076 
L 458.01864 42.355076 
" style="fill:none;stroke:#8c564b;stroke-linecap:square;stroke-width:1.5;"/>
    </g>
    <g id="line2d_14"/>
    <g id="text_8">
     <!-- python3 - 0% -->
     <g transform="translate(424.708484 48.717419)scale(0.035 -0.035)">
      <defs>
       <path d="M 18.109375 8.203125 
L 18.109375 -20.796875 
L 9.078125 -20.796875 
L 9.078125 54.6875 
L 18.109375 54.6875 
L 18.109375 46.390625 
Q 20.953125 51.265625 25.265625 53.625 
Q 29.59375 56 35.59375 56 
Q 45.5625 56 51.78125 48.09375 
Q 58.015625 40.1875 58.015625 27.296875 
Q 58.015625 14.40625 51.78125 6.484375 
Q 45.5625 -1.421875 35.59375 -1.421875 
Q 29.59375 -1.421875 25.265625 0.953125 
Q 20.953125 3.328125 18.109375 8.203125 
z
M 48.6875 27.296875 
Q 48.6875 37.203125 44.609375 42.84375 
Q 40.53125 48.484375 33.40625 48.484375 
Q 26.265625 48.484375 22.1875 42.84375 
Q 18.109375 37.203125 18.109375 27.296875 
Q 18.109375 17.390625 22.1875 11.75 
Q 26.265625 6.109375 33.40625 6.109375 
Q 40.53125 6.109375 44.609375 11.75 
Q 48.6875 17.390625 48.6875 27.296875 
z
" id="DejaVuSans-112"/>
       <path d="M 18.3125 70.21875 
L 18.3125 54.6875 
L 36.8125 54.6875 
L 36.8125 47.703125 
L 18.3125 47.703125 
L 18.3125 18.015625 
Q 18.3125 11.328125 20.140625 9.421875 
Q 21.96875 7.515625 27.59375 7.515625 
L 36.8125 7.515625 
L 36.8125 0 
L 27.59375 0 
Q 17.1875 0 13.234375 3.875 
Q 9.28125 7.765625 9.28125 18.015625 
L 9.28125 47.703125 
L 2.6875 47.703125 
L 2.6875 54.6875 
L 9.28125 54.6875 
L 9.28125 70.21875 
z
" id="DejaVuSans-116"/>
      </defs>
      <use xlink:href="#DejaVuSans-112"/>
      <use x="63.476562" xlink:href="#DejaVuSans-121"/>
      <use x="122.65625" xlink:href="#DejaVuSans-116"/>
      <use x="161.865234" xlink:href="#DejaVuSans-104"/>
      <use x="225.244141" xlink:href="#DejaVuSans-111"/>
      <use x="286.425781" xlink:href="#DejaVuSans-110"/>
      <use x="349.804688" xlink:href="#DejaVuSans-51"/>
      <use x="413.427734" xlink:href="#DejaVuSans-32"/>
      <use x="445.214844" xlink:href="#DejaVuSans-45"/>
      <use x="481.298828" xlink:href="#DejaVuSans-32"/>
      <use x="513.085938" xlink:href="#DejaVuSans-48"/>
      <use x="576.708984" xlink:href="#DejaVuSans-37"/>
     </g>
    </g>
    <g id="line2d_15">
     <path d="M 451.01864 47.492419 
L 458.01864 47.492419 
" style="fill:none;stroke:#e377c2;stroke-linecap:square;stroke-width:1.5;"/>
    </g>
    <g id="line2d_16"/>
   </g>
   <g id="matplotlib.axis_1">
    <g id="xtick_1">
     <g id="line2d_17">
      <path clip-path="url(#pdc1b72a682)" d="M 27.648 223.9488 
L 27.648 17.28 
" style="fill:none;stroke:#b0b0b0;stroke-dasharray:0.2,0.33;stroke-dashoffset:0;stroke-width:0.2;"/>
     </g>
     <g id="line2d_18">
      <defs>
       <path d="M 0 0 
L 0 -3.5 
" id="m3b0a7a11aa" style="stroke:#000000;stroke-width:0.8;"/>
      </defs>
      <g>
       <use style="stroke:#000000;stroke-width:0.8;" x="27.648" xlink:href="#m3b0a7a11aa" y="223.9488"/>
      </g>
     </g>
     <g id="text_9">
      <!-- guider2.out -->
      <g transform="translate(16.04925 227.988175)scale(0.04 -0.04)">
       <defs>
        <path d="M 19.1875 8.296875 
L 53.609375 8.296875 
L 53.609375 0 
L 7.328125 0 
L 7.328125 8.296875 
Q 12.9375 14.109375 22.625 23.890625 
Q 32.328125 33.6875 34.8125 36.53125 
Q 39.546875 41.84375 41.421875 45.53125 
Q 43.3125 49.21875 43.3125 52.78125 
Q 43.3125 58.59375 39.234375 62.25 
Q 35.15625 65.921875 28.609375 65.921875 
Q 23.96875 65.921875 18.8125 64.3125 
Q 13.671875 62.703125 7.8125 59.421875 
L 7.8125 69.390625 
Q 13.765625 71.78125 18.9375 73 
Q 24.125 74.21875 28.421875 74.21875 
Q 39.75 74.21875 46.484375 68.546875 
Q 53.21875 62.890625 53.21875 53.421875 
Q 53.21875 48.921875 51.53125 44.890625 
Q 49.859375 40.875 45.40625 35.40625 
Q 44.1875 33.984375 37.640625 27.21875 
Q 31.109375 20.453125 19.1875 8.296875 
z
" id="DejaVuSans-50"/>
       </defs>
       <use xlink:href="#DejaVuSans-103"/>
       <use x="63.476562" xlink:href="#DejaVuSans-117"/>
       <use x="126.855469" xlink:href="#DejaVuSans-105"/>
       <use x="154.638672" xlink:href="#DejaVuSans-100"/>
       <use x="218.115234" xlink:href="#DejaVuSans-101"/>
       <use x="279.638672" xlink:href="#DejaVuSans-114"/>
       <use x="320.751953" xlink:href="#DejaVuSans-50"/>
       <use x="384.375" xlink:href="#DejaVuSans-46"/>
       <use x="416.162109" xlink:href="#DejaVuSans-111"/>
       <use x="477.34375" xlink:href="#DejaVuSans-117"/>
       <use x="540.722656" xlink:href="#DejaVuSans-116"/>
      </g>
     </g>
    </g>
    <g id="xtick_2">
     <g id="line2d_19">
      <path clip-path="url(#pdc1b72a682)" d="M 414.72 223.9488 
L 414.72 17.28 
" style="fill:none;stroke:#b0b0b0;stroke-dasharray:0.2,0.33;stroke-dashoffset:0;stroke-width:0.2;"/>
     </g>
     <g id="line2d_20">
      <g>
       <use style="stroke:#000000;stroke-width:0.8;" x="414.72" xlink:href="#m3b0a7a11aa" y="223.9488"/>
      </g>
     </g>
     <g id="text_10">
      <!--  -->
      <g transform="translate(414.72 227.988175)scale(0.04 -0.04)"/>
      <!-- guider.out -->
      <g transform="translate(404.57625 232.4673)scale(0.04 -0.04)">
       <use xlink:href="#DejaVuSans-103"/>
       <use x="63.476562" xlink:href="#DejaVuSans-117"/>
       <use x="126.855469" xlink:href="#DejaVuSans-105"/>
       <use x="154.638672" xlink:href="#DejaVuSans-100"/>
       <use x="218.115234" xlink:href="#DejaVuSans-101"/>
       <use x="279.638672" xlink:href="#DejaVuSans-114"/>
       <use x="311.626953" xlink:href="#DejaVuSans-46"/>
       <use x="343.414062" xlink:href="#DejaVuSans-111"/>
       <use x="404.595703" xlink:href="#DejaVuSans-117"/>
       <use x="467.974609" xlink:href="#DejaVuSans-116"/>
      </g>
     </g>
    </g>
   </g>
   <g id="matplotlib.axis_2">
    <g id="ytick_1">
     <g id="line2d_21">
      <path clip-path="url(#pdc1b72a682)" d="M 27.648 223.9488 
L 414.72 223.9488 
" style="fill:none;stroke:#b0b0b0;stroke-dasharray:0.2,0.33;stroke-dashoffset:0;stroke-width:0.2;"/>
     </g>
     <g id="line2d_22">
      <defs>
       <path d="M 0 0 
L 3.5 0 
" id="ma754cafb1f" style="stroke:#000000;stroke-width:0.8;"/>
      </defs>
      <g>
       <use style="stroke:#000000;stroke-width:0.8;" x="27.648" xlink:href="#ma754cafb1f" y="223.9488"/>
      </g>
     </g>
    </g>
    <g id="ytick_2">
     <g id="line2d_23">
      <path clip-path="url(#pdc1b72a682)" d="M 27.648 205.713318 
L 414.72 205.713318 
" style="fill:none;stroke:#b0b0b0;stroke-dasharray:0.2,0.33;stroke-dashoffset:0;stroke-width:0.2;"/>
     </g>
     <g id="line2d_24">
      <g>
       <use style="stroke:#000000;stroke-width:0.8;" x="27.648" xlink:href="#ma754cafb1f" y="205.713318"/>
      </g>
     </g>
     <g id="text_11">
      <!-- 9% -->
      <g transform="translate(18.715969 207.612927)scale(0.05 -0.05)">
       <use xlink:href="#DejaVuSans-57"/>
       <use x="63.623047" xlink:href="#DejaVuSans-37"/>
      </g>
     </g>
    </g>
    <g id="ytick_3">
     <g id="line2d_25">
      <path clip-path="url(#pdc1b72a682)" d="M 27.648 187.477835 
L 414.72 187.477835 
" style="fill:none;stroke:#b0b0b0;stroke-dasharray:0.2,0.33;stroke-dashoffset:0;stroke-width:0.2;"/>
     </g>
     <g id="line2d_26">
      <g>
       <use style="stroke:#000000;stroke-width:0.8;" x="27.648" xlink:href="#ma754cafb1f" y="187.477835"/>
      </g>
     </g>
     <g id="text_12">
      <!-- 18% -->
      <g transform="translate(15.534719 189.377445)scale(0.05 -0.05)">
       <defs>
        <path d="M 12.40625 8.296875 
L 28.515625 8.296875 
L 28.515625 63.921875 
L 10.984375 60.40625 
L 10.984375 69.390625 
L 28.421875 72.90625 
L 38.28125 72.90625 
L 38.28125 8.296875 
L 54.390625 8.296875 
L 54.390625 0 
L 12.40625 0 
z
" id="DejaVuSans-49"/>
       </defs>
       <use xlink:href="#DejaVuSans-49"/>
       <use x="63.623047" xlink:href="#DejaVuSans-56"/>
       <use x="127.246094" xlink:href="#DejaVuSans-37"/>
      </g>
     </g>
    </g>
    <g id="ytick_4">
     <g id="line2d_27">
      <path clip-path="url(#pdc1b72a682)" d="M 27.648 169.242353 
L 414.72 169.242353 
" style="fill:none;stroke:#b0b0b0;stroke-dasharray:0.2,0.33;stroke-dashoffset:0;stroke-width:0.2;"/>
     </g>
     <g id="line2d_28">
      <g>
       <use style="stroke:#000000;stroke-width:0.8;" x="27.648" xlink:href="#ma754cafb1f" y="169.242353"/>
      </g>
     </g>
     <g id="text_13">
      <!-- 27% -->
      <g transform="translate(15.534719 171.141962)scale(0.05 -0.05)">
       <use xlink:href="#DejaVuSans-50"/>
       <use x="63.623047" xlink:href="#DejaVuSans-55"/>
       <use x="127.246094" xlink:href="#DejaVuSans-37"/>
      </g>
     </g>
    </g>
    <g id="ytick_5">
     <g id="line2d_29">
      <path clip-path="url(#pdc1b72a682)" d="M 27.648 151.006871 
L 414.72 151.006871 
" style="fill:none;stroke:#b0b0b0;stroke-dasharray:0.2,0.33;stroke-dashoffset:0;stroke-width:0.2;"/>
     </g>
     <g id="line2d_30">
      <g>
       <use style="stroke:#000000;stroke-width:0.8;" x="27.648" xlink:href="#ma754cafb1f" y="151.006871"/>
      </g>
     </g>
     <g id="text_14">
      <!-- 36% -->
      <g transform="translate(15.534719 152.90648)scale(0.05 -0.05)">
       <use xlink:href="#DejaVuSans-51"/>
       <use x="63.623047" xlink:href="#DejaVuSans-54"/>
       <use x="127.246094" xlink:href="#DejaVuSans-37"/>
      </g>
     </g>
    </g>
    <g id="ytick_6">
     <g id="line2d_31">
      <path clip-path="url(#pdc1b72a682)" d="M 27.648 132.771388 
L 414.72 132.771388 
" style="fill:none;stroke:#b0b0b0;stroke-dasharray:0.2,0.33;stroke-dashoffset:0;stroke-width:0.2;"/>
     </g>
     <g id="line2d_32">
      <g>
       <use style="stroke:#000000;stroke-width:0.8;" x="27.648" xlink:href="#ma754cafb1f" y="132.771388"/>
      </g>
     </g>
     <g id="text_15">
      <!-- 45% -->
      <g transform="translate(15.534719 134.670998)scale(0.05 -0.05)">
       <defs>
        <path d="M 37.796875 64.3125 
L 12.890625 25.390625 
L 37.796875 25.390625 
z
M 35.203125 72.90625 
L 47.609375 72.90625 
L 47.609375 25.390625 
L 58.015625 25.390625 
L 58.015625 17.1875 
L 47.609375 17.1875 
L 47.609375 0 
L 37.796875 0 
L 37.796875 17.1875 
L 4.890625 17.1875 
L 4.890625 26.703125 
z
" id="DejaVuSans-52"/>
       </defs>
       <use xlink:href="#DejaVuSans-52"/>
       <use x="63.623047" xlink:href="#DejaVuSans-53"/>
       <use x="127.246094" xlink:href="#DejaVuSans-37"/>
      </g>
     </g>
    </g>
    <g id="ytick_7">
     <g id="line2d_33">
      <path clip-path="url(#pdc1b72a682)" d="M 27.648 114.535906 
L 414.72 114.535906 
" style="fill:none;stroke:#b0b0b0;stroke-dasharray:0.2,0.33;stroke-dashoffset:0;stroke-width:0.2;"/>
     </g>
     <g id="line2d_34">
      <g>
       <use style="stroke:#000000;stroke-width:0.8;" x="27.648" xlink:href="#ma754cafb1f" y="114.535906"/>
      </g>
     </g>
     <g id="text_16">
      <!-- 54% -->
      <g transform="translate(15.534719 116.435515)scale(0.05 -0.05)">
       <use xlink:href="#DejaVuSans-53"/>
       <use x="63.623047" xlink:href="#DejaVuSans-52"/>
       <use x="127.246094" xlink:href="#DejaVuSans-37"/>
      </g>
     </g>
    </g>
    <g id="ytick_8">
     <g id="line2d_35">
      <path clip-path="url(#pdc1b72a682)" d="M 27.648 96.300424 
L 414.72 96.300424 
" style="fill:none;stroke:#b0b0b0;stroke-dasharray:0.2,0.33;stroke-dashoffset:0;stroke-width:0.2;"/>
     </g>
     <g id="line2d_36">
      <g>
       <use style="stroke:#000000;stroke-width:0.8;" x="27.648" xlink:href="#ma754cafb1f" y="96.300424"/>
      </g>
     </g>
     <g id="text_17">
      <!-- 63% -->
      <g transform="translate(15.534719 98.200033)scale(0.05 -0.05)">
       <use xlink:href="#DejaVuSans-54"/>
       <use x="63.623047" xlink:href="#DejaVuSans-51"/>
       <use x="127.246094" xlink:href="#DejaVuSans-37"/>
      </g>
     </g>
    </g>
    <g id="ytick_9">
     <g id="line2d_37">
      <path clip-path="url(#pdc1b72a682)" d="M 27.648 78.064941 
L 414.72 78.064941 
" style="fill:none;stroke:#b0b0b0;stroke-dasharray:0.2,0.33;stroke-dashoffset:0;stroke-width:0.2;"/>
     </g>
     <g id="line2d_38">
      <g>
       <use style="stroke:#000000;stroke-width:0.8;" x="27.648" xlink:href="#ma754cafb1f" y="78.064941"/>
      </g>
     </g>
     <g id="text_18">
      <!-- 72% -->
      <g transform="translate(15.534719 79.964551)scale(0.05 -0.05)">
       <use xlink:href="#DejaVuSans-55"/>
       <use x="63.623047" xlink:href="#DejaVuSans-50"/>
       <use x="127.246094" xlink:href="#DejaVuSans-37"/>
      </g>
     </g>
    </g>
    <g id="ytick_10">
     <g id="line2d_39">
      <path clip-path="url(#pdc1b72a682)" d="M 27.648 59.829459 
L 414.72 59.829459 
" style="fill:none;stroke:#b0b0b0;stroke-dasharray:0.2,0.33;stroke-dashoffset:0;stroke-width:0.2;"/>
     </g>
     <g id="line2d_40">
      <g>
       <use style="stroke:#000000;stroke-width:0.8;" x="27.648" xlink:href="#ma754cafb1f" y="59.829459"/>
      </g>
     </g>
     <g id="text_19">
      <!-- 81% -->
      <g transform="translate(15.534719 61.729068)scale(0.05 -0.05)">
       <use xlink:href="#DejaVuSans-56"/>
       <use x="63.623047" xlink:href="#DejaVuSans-49"/>
       <use x="127.246094" xlink:href="#DejaVuSans-37"/>
      </g>
     </g>
    </g>
    <g id="ytick_11">
     <g id="line2d_41">
      <path clip-path="url(#pdc1b72a682)" d="M 27.648 41.593976 
L 414.72 41.593976 
" style="fill:none;stroke:#b0b0b0;stroke-dasharray:0.2,0.33;stroke-dashoffset:0;stroke-width:0.2;"/>
     </g>
     <g id="line2d_42">
      <g>
       <use style="stroke:#000000;stroke-width:0.8;" x="27.648" xlink:href="#ma754cafb1f" y="41.593976"/>
      </g>
     </g>
     <g id="text_20">
      <!-- 90% -->
      <g transform="translate(15.534719 43.493586)scale(0.05 -0.05)">
       <use xlink:href="#DejaVuSans-57"/>
       <use x="63.623047" xlink:href="#DejaVuSans-48"/>
       <use x="127.246094" xlink:href="#DejaVuSans-37"/>
      </g>
     </g>
    </g>
    <g id="ytick_12">
     <g id="line2d_43">
      <path clip-path="url(#pdc1b72a682)" d="M 27.648 23.358494 
L 414.72 23.358494 
" style="fill:none;stroke:#b0b0b0;stroke-dasharray:0.2,0.33;stroke-dashoffset:0;stroke-width:0.2;"/>
     </g>
     <g id="line2d_44">
      <g>
       <use style="stroke:#000000;stroke-width:0.8;" x="27.648" xlink:href="#ma754cafb1f" y="23.358494"/>
      </g>
     </g>
     <g id="text_21">
      <!-- 99% -->
      <g transform="translate(15.534719 25.258103)scale(0.05 -0.05)">
       <use xlink:href="#DejaVuSans-57"/>
       <use x="63.623047" xlink:href="#DejaVuSans-57"/>
       <use x="127.246094" xlink:href="#DejaVuSans-37"/>
      </g>
     </g>
    </g>
   </g>
   <g id="line2d_45">
    <path clip-path="url(#pdc1b72a682)" d="M 27.648 210.17088 
L 414.72 210.373496 
" style="fill:none;stroke:#ff0000;stroke-linecap:round;"/>
    <g clip-path="url(#pdc1b72a682)">
     <use style="fill:#ff0000;stroke:#ff0000;stroke-linejoin:miter;" x="27.648" xlink:href="#mdc036fa08d" y="210.17088"/>
     <use style="fill:#ff0000;stroke:#ff0000;stroke-linejoin:miter;" x="414.72" xlink:href="#mdc036fa08d" y="210.373496"/>
    </g>
   </g>
   <g id="line2d_46">
    <path clip-path="url(#pdc1b72a682)" d="M 27.648 35.515482 
L 414.72 45.646306 
" style="fill:none;stroke:#1f77b4;stroke-linecap:square;stroke-width:1.5;"/>
   </g>
   <g id="line2d_47">
    <path clip-path="url(#pdc1b72a682)" d="M 27.648 65.907953 
L 414.72 78.064941 
" style="fill:none;stroke:#ff7f0e;stroke-linecap:square;stroke-width:1.5;"/>
   </g>
   <g id="line2d_48">
    <path clip-path="url(#pdc1b72a682)" d="M 27.648 63.881788 
L 414.72 110.483576 
" style="fill:none;stroke:#2ca02c;stroke-linecap:square;stroke-width:1.5;"/>
   </g>
   <g id="line2d_49">
    <path clip-path="url(#pdc1b72a682)" d="M 27.648 219.896471 
L 414.72 211.791812 
" style="fill:none;stroke:#d62728;stroke-linecap:square;stroke-width:1.5;"/>
   </g>
   <g id="line2d_50">
    <path clip-path="url(#pdc1b72a682)" d="M 27.648 223.9488 
L 414.72 213.817976 
" style="fill:none;stroke:#9467bd;stroke-linecap:square;stroke-width:1.5;"/>
   </g>
   <g id="line2d_51">
    <path clip-path="url(#pdc1b72a682)" d="M 27.648 223.9488 
L 414.72 223.9488 
" style="fill:none;stroke:#8c564b;stroke-linecap:square;stroke-width:1.5;"/>
   </g>
   <g id="line2d_52">
    <path clip-path="url(#pdc1b72a682)" d="M 27.648 223.9488 
L 414.72 223.9488 
" style="fill:none;stroke:#e377c2;stroke-linecap:square;stroke-width:1.5;"/>
   </g>
   <g id="patch_4">
    <path d="M 27.648 223.9488 
L 27.648 17.28 
" style="fill:none;stroke:#000000;stroke-linecap:square;stroke-linejoin:miter;stroke-width:0.8;"/>
   </g>
   <g id="patch_5">
    <path d="M 414.72 223.9488 
L 414.72 17.28 
" style="fill:none;stroke:#000000;stroke-linecap:square;stroke-linejoin:miter;stroke-width:0.8;"/>
   </g>
   <g id="patch_6">
    <path d="M 27.648 223.9488 
L 414.72 223.9488 
" style="fill:none;stroke:#000000;stroke-linecap:square;stroke-linejoin:miter;stroke-width:0.8;"/>
   </g>
   <g id="patch_7">
    <path d="M 27.648 17.28 
L 414.72 17.28 
" style="fill:none;stroke:#000000;stroke-linecap:square;stroke-linejoin:miter;stroke-width:0.8;"/>
   </g>
   <g id="text_22">
    <g id="patch_8">
     <path d="M 27.648 212.198703 
L 34.43925 212.198703 
Q 35.63925 212.198703 35.63925 210.998703 
L 35.63925 207.127453 
Q 35.63925 205.927453 34.43925 205.927453 
L 27.648 205.927453 
Q 26.448 205.927453 26.448 207.127453 
L 26.448 210.998703 
Q 26.448 212.198703 27.648 212.198703 
z
" style="fill:#f5deb3;opacity:0.3;stroke:#000000;stroke-linejoin:miter;"/>
    </g>
    <!-- 6% -->
    <g style="fill:#ff0000;" transform="translate(27.648 210.166828)scale(0.04 -0.04)">
     <defs>
      <path d="M 36.1875 35.984375 
Q 31.25 35.984375 28.78125 32.78125 
Q 26.3125 29.59375 26.3125 23.1875 
Q 26.3125 16.796875 28.78125 13.59375 
Q 31.25 10.40625 36.1875 10.40625 
Q 41.15625 10.40625 43.625 13.59375 
Q 46.09375 16.796875 46.09375 23.1875 
Q 46.09375 29.59375 43.625 32.78125 
Q 41.15625 35.984375 36.1875 35.984375 
z
M 59.421875 71 
L 59.421875 57.515625 
Q 54.78125 59.71875 50.671875 60.765625 
Q 46.578125 61.8125 42.671875 61.8125 
Q 34.28125 61.8125 29.59375 57.140625 
Q 24.90625 52.484375 24.125 43.3125 
Q 27.34375 45.703125 31.09375 46.890625 
Q 34.859375 48.09375 39.3125 48.09375 
Q 50.484375 48.09375 57.34375 41.546875 
Q 64.203125 35.015625 64.203125 24.421875 
Q 64.203125 12.703125 56.53125 5.640625 
Q 48.875 -1.421875 35.984375 -1.421875 
Q 21.78125 -1.421875 13.984375 8.171875 
Q 6.203125 17.78125 6.203125 35.40625 
Q 6.203125 53.46875 15.3125 63.796875 
Q 24.421875 74.125 40.28125 74.125 
Q 45.3125 74.125 50.046875 73.34375 
Q 54.78125 72.5625 59.421875 71 
z
" id="DejaVuSans-Bold-54"/>
      <path d="M 77.484375 30.078125 
Q 74.03125 30.078125 72.125 27.078125 
Q 70.21875 24.078125 70.21875 18.5 
Q 70.21875 12.890625 72.09375 9.890625 
Q 73.96875 6.890625 77.484375 6.890625 
Q 81 6.890625 82.859375 9.890625 
Q 84.71875 12.890625 84.71875 18.5 
Q 84.71875 24.078125 82.828125 27.078125 
Q 80.953125 30.078125 77.484375 30.078125 
z
M 77.484375 38.28125 
Q 86.578125 38.28125 91.796875 33 
Q 97.015625 27.734375 97.015625 18.5 
Q 97.015625 9.28125 91.796875 3.921875 
Q 86.578125 -1.421875 77.484375 -1.421875 
Q 68.40625 -1.421875 63.15625 3.921875 
Q 57.90625 9.28125 57.90625 18.5 
Q 57.90625 27.6875 63.15625 32.984375 
Q 68.40625 38.28125 77.484375 38.28125 
z
M 32.71875 -1.421875 
L 21.921875 -1.421875 
L 67.484375 74.21875 
L 78.328125 74.21875 
z
M 22.703125 74.21875 
Q 31.78125 74.21875 36.984375 68.921875 
Q 42.1875 63.625 42.1875 54.390625 
Q 42.1875 45.171875 36.984375 39.84375 
Q 31.78125 34.515625 22.703125 34.515625 
Q 13.625 34.515625 8.421875 39.84375 
Q 3.21875 45.171875 3.21875 54.390625 
Q 3.21875 63.625 8.421875 68.921875 
Q 13.625 74.21875 22.703125 74.21875 
z
M 22.703125 66.015625 
Q 19.1875 66.015625 17.28125 62.984375 
Q 15.375 59.96875 15.375 54.390625 
Q 15.375 48.78125 17.28125 45.71875 
Q 19.1875 42.671875 22.703125 42.671875 
Q 26.21875 42.671875 28.09375 45.71875 
Q 29.984375 48.78125 29.984375 54.390625 
Q 29.984375 59.96875 28.078125 62.984375 
Q 26.171875 66.015625 22.703125 66.015625 
z
" id="DejaVuSans-Bold-37"/>
     </defs>
     <use xlink:href="#DejaVuSans-Bold-54"/>
     <use x="69.580078" xlink:href="#DejaVuSans-Bold-37"/>
    </g>
   </g>
   <g id="text_23">
    <g id="patch_9">
     <path d="M 411.324375 212.401319 
L 418.115625 212.401319 
Q 419.315625 212.401319 419.315625 211.201319 
L 419.315625 207.330069 
Q 419.315625 206.130069 418.115625 206.130069 
L 411.324375 206.130069 
Q 410.124375 206.130069 410.124375 207.330069 
L 410.124375 211.201319 
Q 410.124375 212.401319 411.324375 212.401319 
z
" style="fill:#f5deb3;opacity:0.3;stroke:#000000;stroke-linejoin:miter;"/>
    </g>
    <!-- 6% -->
    <g style="fill:#ff0000;" transform="translate(411.324375 210.369444)scale(0.04 -0.04)">
     <use xlink:href="#DejaVuSans-Bold-54"/>
     <use x="69.580078" xlink:href="#DejaVuSans-Bold-37"/>
    </g>
   </g>
   <g id="text_24">
    <!-- 93% -->
    <g style="fill:#1f77b4;" transform="translate(27.648 31.463153)scale(0.04 -0.04)">
     <defs>
      <path d="M 10.015625 1.609375 
L 10.015625 15.09375 
Q 14.5 12.984375 18.59375 11.9375 
Q 22.703125 10.890625 26.703125 10.890625 
Q 35.109375 10.890625 39.796875 15.546875 
Q 44.484375 20.21875 45.3125 29.390625 
Q 42 26.953125 38.234375 25.734375 
Q 34.46875 24.515625 30.078125 24.515625 
Q 18.890625 24.515625 12.03125 31.03125 
Q 5.171875 37.546875 5.171875 48.1875 
Q 5.171875 59.96875 12.8125 67.046875 
Q 20.453125 74.125 33.296875 74.125 
Q 47.5625 74.125 55.375 64.5 
Q 63.1875 54.890625 63.1875 37.3125 
Q 63.1875 19.234375 54.046875 8.90625 
Q 44.921875 -1.421875 29 -1.421875 
Q 23.875 -1.421875 19.1875 -0.65625 
Q 14.5 0.09375 10.015625 1.609375 
z
M 33.203125 36.71875 
Q 38.140625 36.71875 40.625 39.90625 
Q 43.109375 43.109375 43.109375 49.515625 
Q 43.109375 55.859375 40.625 59.078125 
Q 38.140625 62.3125 33.203125 62.3125 
Q 28.265625 62.3125 25.78125 59.078125 
Q 23.296875 55.859375 23.296875 49.515625 
Q 23.296875 43.109375 25.78125 39.90625 
Q 28.265625 36.71875 33.203125 36.71875 
z
" id="DejaVuSans-Bold-57"/>
      <path d="M 46.578125 39.3125 
Q 53.953125 37.40625 57.78125 32.6875 
Q 61.625 27.984375 61.625 20.703125 
Q 61.625 9.859375 53.3125 4.21875 
Q 45.015625 -1.421875 29.109375 -1.421875 
Q 23.484375 -1.421875 17.84375 -0.515625 
Q 12.203125 0.390625 6.6875 2.203125 
L 6.6875 16.703125 
Q 11.96875 14.0625 17.15625 12.71875 
Q 22.359375 11.375 27.390625 11.375 
Q 34.859375 11.375 38.84375 13.953125 
Q 42.828125 16.546875 42.828125 21.390625 
Q 42.828125 26.375 38.75 28.9375 
Q 34.671875 31.5 26.703125 31.5 
L 19.1875 31.5 
L 19.1875 43.609375 
L 27.09375 43.609375 
Q 34.1875 43.609375 37.640625 45.828125 
Q 41.109375 48.046875 41.109375 52.59375 
Q 41.109375 56.78125 37.734375 59.078125 
Q 34.375 61.375 28.21875 61.375 
Q 23.6875 61.375 19.046875 60.34375 
Q 14.40625 59.328125 9.8125 57.328125 
L 9.8125 71.09375 
Q 15.375 72.65625 20.84375 73.4375 
Q 26.3125 74.21875 31.59375 74.21875 
Q 45.796875 74.21875 52.84375 69.546875 
Q 59.90625 64.890625 59.90625 55.515625 
Q 59.90625 49.125 56.53125 45.046875 
Q 53.171875 40.96875 46.578125 39.3125 
z
" id="DejaVuSans-Bold-51"/>
     </defs>
     <use xlink:href="#DejaVuSans-Bold-57"/>
     <use x="69.580078" xlink:href="#DejaVuSans-Bold-51"/>
     <use x="139.160156" xlink:href="#DejaVuSans-Bold-37"/>
    </g>
   </g>
   <g id="text_25">
    <!-- 88% -->
    <g style="fill:#1f77b4;" transform="translate(414.72 41.593976)scale(0.04 -0.04)">
     <defs>
      <path d="M 34.8125 32.625 
Q 29.546875 32.625 26.703125 29.734375 
Q 23.875 26.859375 23.875 21.484375 
Q 23.875 16.109375 26.703125 13.25 
Q 29.546875 10.40625 34.8125 10.40625 
Q 40.046875 10.40625 42.828125 13.25 
Q 45.609375 16.109375 45.609375 21.484375 
Q 45.609375 26.90625 42.828125 29.765625 
Q 40.046875 32.625 34.8125 32.625 
z
M 21.09375 38.8125 
Q 14.453125 40.828125 11.078125 44.96875 
Q 7.71875 49.125 7.71875 55.328125 
Q 7.71875 64.546875 14.59375 69.375 
Q 21.484375 74.21875 34.8125 74.21875 
Q 48.046875 74.21875 54.921875 69.40625 
Q 61.8125 64.59375 61.8125 55.328125 
Q 61.8125 49.125 58.421875 44.96875 
Q 55.03125 40.828125 48.390625 38.8125 
Q 55.8125 36.765625 59.59375 32.15625 
Q 63.375 27.546875 63.375 20.515625 
Q 63.375 9.671875 56.171875 4.125 
Q 48.96875 -1.421875 34.8125 -1.421875 
Q 20.609375 -1.421875 13.359375 4.125 
Q 6.109375 9.671875 6.109375 20.515625 
Q 6.109375 27.546875 9.890625 32.15625 
Q 13.671875 36.765625 21.09375 38.8125 
z
M 25.484375 53.421875 
Q 25.484375 49.078125 27.90625 46.734375 
Q 30.328125 44.390625 34.8125 44.390625 
Q 39.203125 44.390625 41.59375 46.734375 
Q 44 49.078125 44 53.421875 
Q 44 57.765625 41.59375 60.078125 
Q 39.203125 62.40625 34.8125 62.40625 
Q 30.328125 62.40625 27.90625 60.0625 
Q 25.484375 57.71875 25.484375 53.421875 
z
" id="DejaVuSans-Bold-56"/>
     </defs>
     <use xlink:href="#DejaVuSans-Bold-56"/>
     <use x="69.580078" xlink:href="#DejaVuSans-Bold-56"/>
     <use x="139.160156" xlink:href="#DejaVuSans-Bold-37"/>
    </g>
   </g>
   <g id="text_26">
    <!-- 78% -->
    <g style="fill:#ff7f0e;" transform="translate(27.648 61.855624)scale(0.04 -0.04)">
     <defs>
      <path d="M 6.6875 72.90625 
L 61.625 72.90625 
L 61.625 62.3125 
L 33.203125 0 
L 14.890625 0 
L 41.796875 59.078125 
L 6.6875 59.078125 
z
" id="DejaVuSans-Bold-55"/>
     </defs>
     <use xlink:href="#DejaVuSans-Bold-55"/>
     <use x="69.580078" xlink:href="#DejaVuSans-Bold-56"/>
     <use x="139.160156" xlink:href="#DejaVuSans-Bold-37"/>
    </g>
   </g>
   <g id="text_27">
    <!-- 72% -->
    <g style="fill:#ff7f0e;" transform="translate(414.72 74.012612)scale(0.04 -0.04)">
     <defs>
      <path d="M 28.8125 13.8125 
L 60.890625 13.8125 
L 60.890625 0 
L 7.90625 0 
L 7.90625 13.8125 
L 34.515625 37.3125 
Q 38.09375 40.53125 39.796875 43.609375 
Q 41.5 46.6875 41.5 50 
Q 41.5 55.125 38.0625 58.25 
Q 34.625 61.375 28.90625 61.375 
Q 24.515625 61.375 19.28125 59.5 
Q 14.0625 57.625 8.109375 53.90625 
L 8.109375 69.921875 
Q 14.453125 72.015625 20.65625 73.109375 
Q 26.859375 74.21875 32.8125 74.21875 
Q 45.90625 74.21875 53.15625 68.453125 
Q 60.40625 62.703125 60.40625 52.390625 
Q 60.40625 46.4375 57.328125 41.28125 
Q 54.25 36.140625 44.390625 27.484375 
z
" id="DejaVuSans-Bold-50"/>
     </defs>
     <use xlink:href="#DejaVuSans-Bold-55"/>
     <use x="69.580078" xlink:href="#DejaVuSans-Bold-50"/>
     <use x="139.160156" xlink:href="#DejaVuSans-Bold-37"/>
    </g>
   </g>
   <g id="text_28">
    <!-- 79% -->
    <g style="fill:#2ca02c;" transform="translate(27.648 59.829459)scale(0.04 -0.04)">
     <use xlink:href="#DejaVuSans-Bold-55"/>
     <use x="69.580078" xlink:href="#DejaVuSans-Bold-57"/>
     <use x="139.160156" xlink:href="#DejaVuSans-Bold-37"/>
    </g>
   </g>
   <g id="text_29">
    <!-- 56% -->
    <g style="fill:#2ca02c;" transform="translate(414.72 106.431247)scale(0.04 -0.04)">
     <defs>
      <path d="M 10.59375 72.90625 
L 57.328125 72.90625 
L 57.328125 59.078125 
L 25.59375 59.078125 
L 25.59375 47.796875 
Q 27.734375 48.390625 29.90625 48.703125 
Q 32.078125 49.03125 34.421875 49.03125 
Q 47.75 49.03125 55.171875 42.359375 
Q 62.59375 35.6875 62.59375 23.78125 
Q 62.59375 11.96875 54.515625 5.265625 
Q 46.4375 -1.421875 32.078125 -1.421875 
Q 25.875 -1.421875 19.796875 -0.21875 
Q 13.71875 0.984375 7.71875 3.421875 
L 7.71875 18.21875 
Q 13.671875 14.796875 19.015625 13.078125 
Q 24.359375 11.375 29.109375 11.375 
Q 35.9375 11.375 39.859375 14.71875 
Q 43.796875 18.0625 43.796875 23.78125 
Q 43.796875 29.546875 39.859375 32.859375 
Q 35.9375 36.1875 29.109375 36.1875 
Q 25.046875 36.1875 20.453125 35.125 
Q 15.875 34.078125 10.59375 31.890625 
z
" id="DejaVuSans-Bold-53"/>
     </defs>
     <use xlink:href="#DejaVuSans-Bold-53"/>
     <use x="69.580078" xlink:href="#DejaVuSans-Bold-54"/>
     <use x="139.160156" xlink:href="#DejaVuSans-Bold-37"/>
    </g>
   </g>
   <g id="text_30">
    <!-- 2% -->
    <g style="fill:#d62728;" transform="translate(24.252375 215.844141)scale(0.04 -0.04)">
     <use xlink:href="#DejaVuSans-Bold-50"/>
     <use x="69.580078" xlink:href="#DejaVuSans-Bold-37"/>
    </g>
   </g>
   <g id="text_31">
    <!-- 6% -->
    <g style="fill:#d62728;" transform="translate(411.324375 207.739482)scale(0.04 -0.04)">
     <use xlink:href="#DejaVuSans-Bold-54"/>
     <use x="69.580078" xlink:href="#DejaVuSans-Bold-37"/>
    </g>
   </g>
   <g id="text_32">
    <!-- 5% -->
    <g style="fill:#9467bd;" transform="translate(411.324375 209.765647)scale(0.04 -0.04)">
     <use xlink:href="#DejaVuSans-Bold-53"/>
     <use x="69.580078" xlink:href="#DejaVuSans-Bold-37"/>
    </g>
   </g>
  </g>
  <g id="axes_2">
   <g id="patch_10">
    <path d="M 27.648 331.776 
L 414.72 331.776 
L 414.72 232.9344 
L 27.648 232.9344 
z
" style="fill:#ffffff;"/>
   </g>
   <g id="legend_2">
    <g id="patch_11">
     <path d="M 406.009187 279.776066 
L 458.71864 279.776066 
Q 459.41864 279.776066 459.41864 279.076066 
L 459.41864 260.0948 
Q 459.41864 259.3948 458.71864 259.3948 
L 406.009187 259.3948 
Q 405.309187 259.3948 405.309187 260.0948 
L 405.309187 279.076066 
Q 405.309187 279.776066 406.009187 279.776066 
z
" style="fill:#ffffff;opacity:0.8;stroke:#cccccc;stroke-linejoin:miter;"/>
    </g>
    <g id="text_33">
     <!-- [ RAM Total ] - 125.7G -->
     <g transform="translate(406.709187 263.454253)scale(0.035 -0.035)">
      <defs>
       <path d="M 44.390625 34.1875 
Q 47.5625 33.109375 50.5625 29.59375 
Q 53.5625 26.078125 56.59375 19.921875 
L 66.609375 0 
L 56 0 
L 46.6875 18.703125 
Q 43.0625 26.03125 39.671875 28.421875 
Q 36.28125 30.8125 30.421875 30.8125 
L 19.671875 30.8125 
L 19.671875 0 
L 9.8125 0 
L 9.8125 72.90625 
L 32.078125 72.90625 
Q 44.578125 72.90625 50.734375 67.671875 
Q 56.890625 62.453125 56.890625 51.90625 
Q 56.890625 45.015625 53.6875 40.46875 
Q 50.484375 35.9375 44.390625 34.1875 
z
M 19.671875 64.796875 
L 19.671875 38.921875 
L 32.078125 38.921875 
Q 39.203125 38.921875 42.84375 42.21875 
Q 46.484375 45.515625 46.484375 51.90625 
Q 46.484375 58.296875 42.84375 61.546875 
Q 39.203125 64.796875 32.078125 64.796875 
z
" id="DejaVuSans-82"/>
       <path d="M 9.8125 72.90625 
L 24.515625 72.90625 
L 43.109375 23.296875 
L 61.8125 72.90625 
L 76.515625 72.90625 
L 76.515625 0 
L 66.890625 0 
L 66.890625 64.015625 
L 48.09375 14.015625 
L 38.1875 14.015625 
L 19.390625 64.015625 
L 19.390625 0 
L 9.8125 0 
z
" id="DejaVuSans-77"/>
       <path d="M -0.296875 72.90625 
L 61.375 72.90625 
L 61.375 64.59375 
L 35.5 64.59375 
L 35.5 0 
L 25.59375 0 
L 25.59375 64.59375 
L -0.296875 64.59375 
z
" id="DejaVuSans-84"/>
       <path d="M 9.421875 75.984375 
L 18.40625 75.984375 
L 18.40625 0 
L 9.421875 0 
z
" id="DejaVuSans-108"/>
       <path d="M 59.515625 10.40625 
L 59.515625 29.984375 
L 43.40625 29.984375 
L 43.40625 38.09375 
L 69.28125 38.09375 
L 69.28125 6.78125 
Q 63.578125 2.734375 56.6875 0.65625 
Q 49.8125 -1.421875 42 -1.421875 
Q 24.90625 -1.421875 15.25 8.5625 
Q 5.609375 18.5625 5.609375 36.375 
Q 5.609375 54.25 15.25 64.234375 
Q 24.90625 74.21875 42 74.21875 
Q 49.125 74.21875 55.546875 72.453125 
Q 61.96875 70.703125 67.390625 67.28125 
L 67.390625 56.78125 
Q 61.921875 61.421875 55.765625 63.765625 
Q 49.609375 66.109375 42.828125 66.109375 
Q 29.4375 66.109375 22.71875 58.640625 
Q 16.015625 51.171875 16.015625 36.375 
Q 16.015625 21.625 22.71875 14.15625 
Q 29.4375 6.6875 42.828125 6.6875 
Q 48.046875 6.6875 52.140625 7.59375 
Q 56.25 8.5 59.515625 10.40625 
z
" id="DejaVuSans-71"/>
      </defs>
      <use xlink:href="#DejaVuSans-91"/>
      <use x="39.013672" xlink:href="#DejaVuSans-32"/>
      <use x="70.800781" xlink:href="#DejaVuSans-82"/>
      <use x="136.283203" xlink:href="#DejaVuSans-65"/>
      <use x="204.691406" xlink:href="#DejaVuSans-77"/>
      <use x="290.970703" xlink:href="#DejaVuSans-32"/>
      <use x="322.757812" xlink:href="#DejaVuSans-84"/>
      <use x="366.841797" xlink:href="#DejaVuSans-111"/>
      <use x="428.023438" xlink:href="#DejaVuSans-116"/>
      <use x="467.232422" xlink:href="#DejaVuSans-97"/>
      <use x="528.511719" xlink:href="#DejaVuSans-108"/>
      <use x="556.294922" xlink:href="#DejaVuSans-32"/>
      <use x="588.082031" xlink:href="#DejaVuSans-93"/>
      <use x="627.095703" xlink:href="#DejaVuSans-32"/>
      <use x="658.882812" xlink:href="#DejaVuSans-45"/>
      <use x="694.966797" xlink:href="#DejaVuSans-32"/>
      <use x="726.753906" xlink:href="#DejaVuSans-49"/>
      <use x="790.376953" xlink:href="#DejaVuSans-50"/>
      <use x="854" xlink:href="#DejaVuSans-53"/>
      <use x="917.623047" xlink:href="#DejaVuSans-46"/>
      <use x="949.410156" xlink:href="#DejaVuSans-55"/>
      <use x="1013.033203" xlink:href="#DejaVuSans-71"/>
     </g>
     <!-- RAM Available - 124689 -->
     <g transform="translate(406.709187 267.373488)scale(0.035 -0.035)">
      <defs>
       <path d="M 48.6875 27.296875 
Q 48.6875 37.203125 44.609375 42.84375 
Q 40.53125 48.484375 33.40625 48.484375 
Q 26.265625 48.484375 22.1875 42.84375 
Q 18.109375 37.203125 18.109375 27.296875 
Q 18.109375 17.390625 22.1875 11.75 
Q 26.265625 6.109375 33.40625 6.109375 
Q 40.53125 6.109375 44.609375 11.75 
Q 48.6875 17.390625 48.6875 27.296875 
z
M 18.109375 46.390625 
Q 20.953125 51.265625 25.265625 53.625 
Q 29.59375 56 35.59375 56 
Q 45.5625 56 51.78125 48.09375 
Q 58.015625 40.1875 58.015625 27.296875 
Q 58.015625 14.40625 51.78125 6.484375 
Q 45.5625 -1.421875 35.59375 -1.421875 
Q 29.59375 -1.421875 25.265625 0.953125 
Q 20.953125 3.328125 18.109375 8.203125 
L 18.109375 0 
L 9.078125 0 
L 9.078125 75.984375 
L 18.109375 75.984375 
z
" id="DejaVuSans-98"/>
      </defs>
      <use xlink:href="#DejaVuSans-82"/>
      <use x="65.482422" xlink:href="#DejaVuSans-65"/>
      <use x="133.890625" xlink:href="#DejaVuSans-77"/>
      <use x="220.169922" xlink:href="#DejaVuSans-32"/>
      <use x="251.957031" xlink:href="#DejaVuSans-65"/>
      <use x="314.490234" xlink:href="#DejaVuSans-118"/>
      <use x="373.669922" xlink:href="#DejaVuSans-97"/>
      <use x="434.949219" xlink:href="#DejaVuSans-105"/>
      <use x="462.732422" xlink:href="#DejaVuSans-108"/>
      <use x="490.515625" xlink:href="#DejaVuSans-97"/>
      <use x="551.794922" xlink:href="#DejaVuSans-98"/>
      <use x="615.271484" xlink:href="#DejaVuSans-108"/>
      <use x="643.054688" xlink:href="#DejaVuSans-101"/>
      <use x="704.578125" xlink:href="#DejaVuSans-32"/>
      <use x="736.365234" xlink:href="#DejaVuSans-45"/>
      <use x="772.449219" xlink:href="#DejaVuSans-32"/>
      <use x="804.236328" xlink:href="#DejaVuSans-49"/>
      <use x="867.859375" xlink:href="#DejaVuSans-50"/>
      <use x="931.482422" xlink:href="#DejaVuSans-52"/>
      <use x="995.105469" xlink:href="#DejaVuSans-54"/>
      <use x="1058.728516" xlink:href="#DejaVuSans-56"/>
      <use x="1122.351562" xlink:href="#DejaVuSans-57"/>
     </g>
    </g>
    <g id="line2d_53">
     <path d="M 451.01864 264.552816 
L 458.01864 264.552816 
" style="fill:none;stroke:#0000ff;stroke-linecap:round;"/>
    </g>
    <g id="line2d_54"/>
    <g id="text_34">
     <!-- RAM User - 509 -->
     <g transform="translate(421.254968 272.510831)scale(0.035 -0.035)">
      <use xlink:href="#DejaVuSans-82"/>
      <use x="65.482422" xlink:href="#DejaVuSans-65"/>
      <use x="133.890625" xlink:href="#DejaVuSans-77"/>
      <use x="220.169922" xlink:href="#DejaVuSans-32"/>
      <use x="251.957031" xlink:href="#DejaVuSans-85"/>
      <use x="325.150391" xlink:href="#DejaVuSans-115"/>
      <use x="377.25" xlink:href="#DejaVuSans-101"/>
      <use x="438.773438" xlink:href="#DejaVuSans-114"/>
      <use x="479.886719" xlink:href="#DejaVuSans-32"/>
      <use x="511.673828" xlink:href="#DejaVuSans-45"/>
      <use x="547.757812" xlink:href="#DejaVuSans-32"/>
      <use x="579.544922" xlink:href="#DejaVuSans-53"/>
      <use x="643.167969" xlink:href="#DejaVuSans-48"/>
      <use x="706.791016" xlink:href="#DejaVuSans-57"/>
     </g>
    </g>
    <g id="line2d_55">
     <path d="M 451.01864 271.285831 
L 458.01864 271.285831 
" style="fill:none;stroke:#87ceeb;stroke-linecap:round;"/>
    </g>
    <g id="line2d_56"/>
    <g id="text_35">
     <!-- RAM Cache - 5014 -->
     <g transform="translate(416.120359 277.648175)scale(0.035 -0.035)">
      <use xlink:href="#DejaVuSans-82"/>
      <use x="65.482422" xlink:href="#DejaVuSans-65"/>
      <use x="133.890625" xlink:href="#DejaVuSans-77"/>
      <use x="220.169922" xlink:href="#DejaVuSans-32"/>
      <use x="251.957031" xlink:href="#DejaVuSans-67"/>
      <use x="321.78125" xlink:href="#DejaVuSans-97"/>
      <use x="383.060547" xlink:href="#DejaVuSans-99"/>
      <use x="438.041016" xlink:href="#DejaVuSans-104"/>
      <use x="501.419922" xlink:href="#DejaVuSans-101"/>
      <use x="562.943359" xlink:href="#DejaVuSans-32"/>
      <use x="594.730469" xlink:href="#DejaVuSans-45"/>
      <use x="630.814453" xlink:href="#DejaVuSans-32"/>
      <use x="662.601562" xlink:href="#DejaVuSans-53"/>
      <use x="726.224609" xlink:href="#DejaVuSans-48"/>
      <use x="789.847656" xlink:href="#DejaVuSans-49"/>
      <use x="853.470703" xlink:href="#DejaVuSans-52"/>
     </g>
    </g>
    <g id="line2d_57">
     <path d="M 451.01864 276.423175 
L 458.01864 276.423175 
" style="fill:none;stroke:#a9a9a9;stroke-linecap:round;"/>
    </g>
    <g id="line2d_58"/>
   </g>
   <g id="matplotlib.axis_3">
    <g id="xtick_3">
     <g id="line2d_59">
      <path clip-path="url(#p5783392ace)" d="M 27.648 331.776 
L 27.648 232.9344 
" style="fill:none;stroke:#b0b0b0;stroke-dasharray:0.2,0.33;stroke-dashoffset:0;stroke-width:0.2;"/>
     </g>
     <g id="line2d_60">
      <g>
       <use style="stroke:#000000;stroke-width:0.8;" x="27.648" xlink:href="#m3b0a7a11aa" y="331.776"/>
      </g>
     </g>
     <g id="text_36">
      <!-- guider2.out -->
      <g transform="translate(16.04925 335.815375)scale(0.04 -0.04)">
       <use xlink:href="#DejaVuSans-103"/>
       <use x="63.476562" xlink:href="#DejaVuSans-117"/>
       <use x="126.855469" xlink:href="#DejaVuSans-105"/>
       <use x="154.638672" xlink:href="#DejaVuSans-100"/>
       <use x="218.115234" xlink:href="#DejaVuSans-101"/>
       <use x="279.638672" xlink:href="#DejaVuSans-114"/>
       <use x="320.751953" xlink:href="#DejaVuSans-50"/>
       <use x="384.375" xlink:href="#DejaVuSans-46"/>
       <use x="416.162109" xlink:href="#DejaVuSans-111"/>
       <use x="477.34375" xlink:href="#DejaVuSans-117"/>
       <use x="540.722656" xlink:href="#DejaVuSans-116"/>
      </g>
     </g>
    </g>
    <g id="xtick_4">
     <g id="line2d_61">
      <path clip-path="url(#p5783392ace)" d="M 414.72 331.776 
L 414.72 232.9344 
" style="fill:none;stroke:#b0b0b0;stroke-dasharray:0.2,0.33;stroke-dashoffset:0;stroke-width:0.2;"/>
     </g>
     <g id="line2d_62">
      <g>
       <use style="stroke:#000000;stroke-width:0.8;" x="414.72" xlink:href="#m3b0a7a11aa" y="331.776"/>
      </g>
     </g>
     <g id="text_37">
      <!--  -->
      <g transform="translate(414.72 335.815375)scale(0.04 -0.04)"/>
      <!-- guider.out -->
      <g transform="translate(404.57625 340.2945)scale(0.04 -0.04)">
       <use xlink:href="#DejaVuSans-103"/>
       <use x="63.476562" xlink:href="#DejaVuSans-117"/>
       <use x="126.855469" xlink:href="#DejaVuSans-105"/>
       <use x="154.638672" xlink:href="#DejaVuSans-100"/>
       <use x="218.115234" xlink:href="#DejaVuSans-101"/>
       <use x="279.638672" xlink:href="#DejaVuSans-114"/>
       <use x="311.626953" xlink:href="#DejaVuSans-46"/>
       <use x="343.414062" xlink:href="#DejaVuSans-111"/>
       <use x="404.595703" xlink:href="#DejaVuSans-117"/>
       <use x="467.974609" xlink:href="#DejaVuSans-116"/>
      </g>
     </g>
    </g>
   </g>
   <g id="matplotlib.axis_4">
    <g id="ytick_13">
     <g id="line2d_63">
      <path clip-path="url(#p5783392ace)" d="M 27.648 331.776 
L 414.72 331.776 
" style="fill:none;stroke:#b0b0b0;stroke-dasharray:0.2,0.33;stroke-dashoffset:0;stroke-width:0.2;"/>
     </g>
     <g id="line2d_64">
      <g>
       <use style="stroke:#000000;stroke-width:0.8;" x="27.648" xlink:href="#ma754cafb1f" y="331.776"/>
      </g>
     </g>
    </g>
    <g id="ytick_14">
     <g id="line2d_65">
      <path clip-path="url(#p5783392ace)" d="M 27.648 322.790466 
L 414.72 322.790466 
" style="fill:none;stroke:#b0b0b0;stroke-dasharray:0.2,0.33;stroke-dashoffset:0;stroke-width:0.2;"/>
     </g>
     <g id="line2d_66">
      <g>
       <use style="stroke:#000000;stroke-width:0.8;" x="27.648" xlink:href="#ma754cafb1f" y="322.790466"/>
      </g>
     </g>
     <g id="text_38">
      <!-- 12.2G -->
      <g transform="translate(11.640969 324.690075)scale(0.05 -0.05)">
       <use xlink:href="#DejaVuSans-49"/>
       <use x="63.623047" xlink:href="#DejaVuSans-50"/>
       <use x="127.246094" xlink:href="#DejaVuSans-46"/>
       <use x="159.033203" xlink:href="#DejaVuSans-50"/>
       <use x="222.65625" xlink:href="#DejaVuSans-71"/>
      </g>
     </g>
    </g>
    <g id="ytick_15">
     <g id="line2d_67">
      <path clip-path="url(#p5783392ace)" d="M 27.648 313.804931 
L 414.72 313.804931 
" style="fill:none;stroke:#b0b0b0;stroke-dasharray:0.2,0.33;stroke-dashoffset:0;stroke-width:0.2;"/>
     </g>
     <g id="line2d_68">
      <g>
       <use style="stroke:#000000;stroke-width:0.8;" x="27.648" xlink:href="#ma754cafb1f" y="313.804931"/>
      </g>
     </g>
     <g id="text_39">
      <!-- 24.4G -->
      <g transform="translate(11.640969 315.70454)scale(0.05 -0.05)">
       <use xlink:href="#DejaVuSans-50"/>
       <use x="63.623047" xlink:href="#DejaVuSans-52"/>
       <use x="127.246094" xlink:href="#DejaVuSans-46"/>
       <use x="159.033203" xlink:href="#DejaVuSans-52"/>
       <use x="222.65625" xlink:href="#DejaVuSans-71"/>
      </g>
     </g>
    </g>
    <g id="ytick_16">
     <g id="line2d_69">
      <path clip-path="url(#p5783392ace)" d="M 27.648 304.819397 
L 414.72 304.819397 
" style="fill:none;stroke:#b0b0b0;stroke-dasharray:0.2,0.33;stroke-dashoffset:0;stroke-width:0.2;"/>
     </g>
     <g id="line2d_70">
      <g>
       <use style="stroke:#000000;stroke-width:0.8;" x="27.648" xlink:href="#ma754cafb1f" y="304.819397"/>
      </g>
     </g>
     <g id="text_40">
      <!-- 36.5G -->
      <g transform="translate(11.640969 306.719006)scale(0.05 -0.05)">
       <use xlink:href="#DejaVuSans-51"/>
       <use x="63.623047" xlink:href="#DejaVuSans-54"/>
       <use x="127.246094" xlink:href="#DejaVuSans-46"/>
       <use x="159.033203" xlink:href="#DejaVuSans-53"/>
       <use x="222.65625" xlink:href="#DejaVuSans-71"/>
      </g>
     </g>
    </g>
    <g id="ytick_17">
     <g id="line2d_71">
      <path clip-path="url(#p5783392ace)" d="M 27.648 295.833862 
L 414.72 295.833862 
" style="fill:none;stroke:#b0b0b0;stroke-dasharray:0.2,0.33;stroke-dashoffset:0;stroke-width:0.2;"/>
     </g>
     <g id="line2d_72">
      <g>
       <use style="stroke:#000000;stroke-width:0.8;" x="27.648" xlink:href="#ma754cafb1f" y="295.833862"/>
      </g>
     </g>
     <g id="text_41">
      <!-- 48.7G -->
      <g transform="translate(11.640969 297.733471)scale(0.05 -0.05)">
       <use xlink:href="#DejaVuSans-52"/>
       <use x="63.623047" xlink:href="#DejaVuSans-56"/>
       <use x="127.246094" xlink:href="#DejaVuSans-46"/>
       <use x="159.033203" xlink:href="#DejaVuSans-55"/>
       <use x="222.65625" xlink:href="#DejaVuSans-71"/>
      </g>
     </g>
    </g>
    <g id="ytick_18">
     <g id="line2d_73">
      <path clip-path="url(#p5783392ace)" d="M 27.648 286.848328 
L 414.72 286.848328 
" style="fill:none;stroke:#b0b0b0;stroke-dasharray:0.2,0.33;stroke-dashoffset:0;stroke-width:0.2;"/>
     </g>
     <g id="line2d_74">
      <g>
       <use style="stroke:#000000;stroke-width:0.8;" x="27.648" xlink:href="#ma754cafb1f" y="286.848328"/>
      </g>
     </g>
     <g id="text_42">
      <!-- 60.9G -->
      <g transform="translate(11.640969 288.747937)scale(0.05 -0.05)">
       <use xlink:href="#DejaVuSans-54"/>
       <use x="63.623047" xlink:href="#DejaVuSans-48"/>
       <use x="127.246094" xlink:href="#DejaVuSans-46"/>
       <use x="159.033203" xlink:href="#DejaVuSans-57"/>
       <use x="222.65625" xlink:href="#DejaVuSans-71"/>
      </g>
     </g>
    </g>
    <g id="ytick_19">
     <g id="line2d_75">
      <path clip-path="url(#p5783392ace)" d="M 27.648 277.862793 
L 414.72 277.862793 
" style="fill:none;stroke:#b0b0b0;stroke-dasharray:0.2,0.33;stroke-dashoffset:0;stroke-width:0.2;"/>
     </g>
     <g id="line2d_76">
      <g>
       <use style="stroke:#000000;stroke-width:0.8;" x="27.648" xlink:href="#ma754cafb1f" y="277.862793"/>
      </g>
     </g>
     <g id="text_43">
      <!-- 73.1G -->
      <g transform="translate(11.640969 279.762402)scale(0.05 -0.05)">
       <use xlink:href="#DejaVuSans-55"/>
       <use x="63.623047" xlink:href="#DejaVuSans-51"/>
       <use x="127.246094" xlink:href="#DejaVuSans-46"/>
       <use x="159.033203" xlink:href="#DejaVuSans-49"/>
       <use x="222.65625" xlink:href="#DejaVuSans-71"/>
      </g>
     </g>
    </g>
    <g id="ytick_20">
     <g id="line2d_77">
      <path clip-path="url(#p5783392ace)" d="M 27.648 268.877259 
L 414.72 268.877259 
" style="fill:none;stroke:#b0b0b0;stroke-dasharray:0.2,0.33;stroke-dashoffset:0;stroke-width:0.2;"/>
     </g>
     <g id="line2d_78">
      <g>
       <use style="stroke:#000000;stroke-width:0.8;" x="27.648" xlink:href="#ma754cafb1f" y="268.877259"/>
      </g>
     </g>
     <g id="text_44">
      <!-- 85.2G -->
      <g transform="translate(11.640969 270.776868)scale(0.05 -0.05)">
       <use xlink:href="#DejaVuSans-56"/>
       <use x="63.623047" xlink:href="#DejaVuSans-53"/>
       <use x="127.246094" xlink:href="#DejaVuSans-46"/>
       <use x="159.033203" xlink:href="#DejaVuSans-50"/>
       <use x="222.65625" xlink:href="#DejaVuSans-71"/>
      </g>
     </g>
    </g>
    <g id="ytick_21">
     <g id="line2d_79">
      <path clip-path="url(#p5783392ace)" d="M 27.648 259.891724 
L 414.72 259.891724 
" style="fill:none;stroke:#b0b0b0;stroke-dasharray:0.2,0.33;stroke-dashoffset:0;stroke-width:0.2;"/>
     </g>
     <g id="line2d_80">
      <g>
       <use style="stroke:#000000;stroke-width:0.8;" x="27.648" xlink:href="#ma754cafb1f" y="259.891724"/>
      </g>
     </g>
     <g id="text_45">
      <!-- 97.4G -->
      <g transform="translate(11.640969 261.791333)scale(0.05 -0.05)">
       <use xlink:href="#DejaVuSans-57"/>
       <use x="63.623047" xlink:href="#DejaVuSans-55"/>
       <use x="127.246094" xlink:href="#DejaVuSans-46"/>
       <use x="159.033203" xlink:href="#DejaVuSans-52"/>
       <use x="222.65625" xlink:href="#DejaVuSans-71"/>
      </g>
     </g>
    </g>
    <g id="ytick_22">
     <g id="line2d_81">
      <path clip-path="url(#p5783392ace)" d="M 27.648 250.90619 
L 414.72 250.90619 
" style="fill:none;stroke:#b0b0b0;stroke-dasharray:0.2,0.33;stroke-dashoffset:0;stroke-width:0.2;"/>
     </g>
     <g id="line2d_82">
      <g>
       <use style="stroke:#000000;stroke-width:0.8;" x="27.648" xlink:href="#ma754cafb1f" y="250.90619"/>
      </g>
     </g>
     <g id="text_46">
      <!-- 109.6G -->
      <g transform="translate(8.459719 252.805799)scale(0.05 -0.05)">
       <use xlink:href="#DejaVuSans-49"/>
       <use x="63.623047" xlink:href="#DejaVuSans-48"/>
       <use x="127.246094" xlink:href="#DejaVuSans-57"/>
       <use x="190.869141" xlink:href="#DejaVuSans-46"/>
       <use x="222.65625" xlink:href="#DejaVuSans-54"/>
       <use x="286.279297" xlink:href="#DejaVuSans-71"/>
      </g>
     </g>
    </g>
    <g id="ytick_23">
     <g id="line2d_83">
      <path clip-path="url(#p5783392ace)" d="M 27.648 241.920655 
L 414.72 241.920655 
" style="fill:none;stroke:#b0b0b0;stroke-dasharray:0.2,0.33;stroke-dashoffset:0;stroke-width:0.2;"/>
     </g>
     <g id="line2d_84">
      <g>
       <use style="stroke:#000000;stroke-width:0.8;" x="27.648" xlink:href="#ma754cafb1f" y="241.920655"/>
      </g>
     </g>
     <g id="text_47">
      <!-- 121.8G -->
      <g transform="translate(8.459719 243.820264)scale(0.05 -0.05)">
       <use xlink:href="#DejaVuSans-49"/>
       <use x="63.623047" xlink:href="#DejaVuSans-50"/>
       <use x="127.246094" xlink:href="#DejaVuSans-49"/>
       <use x="190.869141" xlink:href="#DejaVuSans-46"/>
       <use x="222.65625" xlink:href="#DejaVuSans-56"/>
       <use x="286.279297" xlink:href="#DejaVuSans-71"/>
      </g>
     </g>
    </g>
    <g id="ytick_24">
     <g id="line2d_85">
      <path clip-path="url(#p5783392ace)" d="M 27.648 232.935121 
L 414.72 232.935121 
" style="fill:none;stroke:#b0b0b0;stroke-dasharray:0.2,0.33;stroke-dashoffset:0;stroke-width:0.2;"/>
     </g>
     <g id="line2d_86">
      <g>
       <use style="stroke:#000000;stroke-width:0.8;" x="27.648" xlink:href="#ma754cafb1f" y="232.935121"/>
      </g>
     </g>
     <g id="text_48">
      <!-- 133.9G -->
      <g transform="translate(8.459719 234.83473)scale(0.05 -0.05)">
       <use xlink:href="#DejaVuSans-49"/>
       <use x="63.623047" xlink:href="#DejaVuSans-51"/>
       <use x="127.246094" xlink:href="#DejaVuSans-51"/>
       <use x="190.869141" xlink:href="#DejaVuSans-46"/>
       <use x="222.65625" xlink:href="#DejaVuSans-57"/>
       <use x="286.279297" xlink:href="#DejaVuSans-71"/>
      </g>
     </g>
    </g>
   </g>
   <g id="line2d_87">
    <path clip-path="url(#p5783392ace)" d="M 27.648 241.919934 
L 414.72 241.921376 
" style="fill:none;stroke:#0000ff;stroke-linecap:round;"/>
   </g>
   <g id="line2d_88">
    <path clip-path="url(#p5783392ace)" d="M 27.648 331.409199 
L 414.72 331.409199 
" style="fill:none;stroke:#87ceeb;stroke-linecap:round;"/>
   </g>
   <g id="line2d_89">
    <path clip-path="url(#p5783392ace)" d="M 27.648 328.162762 
L 414.72 328.162762 
" style="fill:none;stroke:#a9a9a9;stroke-linecap:round;"/>
   </g>
   <g id="patch_12">
    <path d="M 27.648 331.776 
L 27.648 232.9344 
" style="fill:none;stroke:#000000;stroke-linecap:square;stroke-linejoin:miter;stroke-width:0.8;"/>
   </g>
   <g id="patch_13">
    <path d="M 414.72 331.776 
L 414.72 232.9344 
" style="fill:none;stroke:#000000;stroke-linecap:square;stroke-linejoin:miter;stroke-width:0.8;"/>
   </g>
   <g id="patch_14">
    <path d="M 27.648 331.776 
L 414.72 331.776 
" style="fill:none;stroke:#000000;stroke-linecap:square;stroke-linejoin:miter;stroke-width:0.8;"/>
   </g>
   <g id="patch_15">
    <path d="M 27.648 232.9344 
L 414.72 232.9344 
" style="fill:none;stroke:#000000;stroke-linecap:square;stroke-linejoin:miter;stroke-width:0.8;"/>
   </g>
   <g id="text_49">
    <!-- 121.8G -->
    <g style="fill:#0000ff;" transform="translate(27.648 241.919934)scale(0.04 -0.04)">
     <use xlink:href="#DejaVuSans-49"/>
     <use x="63.623047" xlink:href="#DejaVuSans-50"/>
     <use x="127.246094" xlink:href="#DejaVuSans-49"/>
     <use x="190.869141" xlink:href="#DejaVuSans-46"/>
     <use x="222.65625" xlink:href="#DejaVuSans-56"/>
     <use x="286.279297" xlink:href="#DejaVuSans-71"/>
    </g>
   </g>
   <g id="text_50">
    <!-- 121.8G -->
    <g style="fill:#0000ff;" transform="translate(414.72 241.921376)scale(0.04 -0.04)">
     <use xlink:href="#DejaVuSans-49"/>
     <use x="63.623047" xlink:href="#DejaVuSans-50"/>
     <use x="127.246094" xlink:href="#DejaVuSans-49"/>
     <use x="190.869141" xlink:href="#DejaVuSans-46"/>
     <use x="222.65625" xlink:href="#DejaVuSans-56"/>
     <use x="286.279297" xlink:href="#DejaVuSans-71"/>
    </g>
   </g>
   <g id="text_51">
    <!-- 509.0M -->
    <g style="fill:#87ceeb;" transform="translate(27.648 331.409199)scale(0.04 -0.04)">
     <use xlink:href="#DejaVuSans-53"/>
     <use x="63.623047" xlink:href="#DejaVuSans-48"/>
     <use x="127.246094" xlink:href="#DejaVuSans-57"/>
     <use x="190.869141" xlink:href="#DejaVuSans-46"/>
     <use x="222.65625" xlink:href="#DejaVuSans-48"/>
     <use x="286.279297" xlink:href="#DejaVuSans-77"/>
    </g>
   </g>
   <g id="text_52">
    <!-- 509.0M -->
    <g style="fill:#87ceeb;" transform="translate(414.72 331.409199)scale(0.04 -0.04)">
     <use xlink:href="#DejaVuSans-53"/>
     <use x="63.623047" xlink:href="#DejaVuSans-48"/>
     <use x="127.246094" xlink:href="#DejaVuSans-57"/>
     <use x="190.869141" xlink:href="#DejaVuSans-46"/>
     <use x="222.65625" xlink:href="#DejaVuSans-48"/>
     <use x="286.279297" xlink:href="#DejaVuSans-77"/>
    </g>
   </g>
   <g id="text_53">
    <!-- 4.9G -->
    <g style="fill:#a9a9a9;" transform="translate(27.648 328.162762)scale(0.04 -0.04)">
     <use xlink:href="#DejaVuSans-52"/>
     <use x="63.623047" xlink:href="#DejaVuSans-46"/>
     <use x="95.410156" xlink:href="#DejaVuSans-57"/>
     <use x="159.033203" xlink:href="#DejaVuSans-71"/>
    </g>
   </g>
   <g id="text_54">
    <!-- 4.9G -->
    <g style="fill:#a9a9a9;" transform="translate(414.72 328.162762)scale(0.04 -0.04)">
     <use xlink:href="#DejaVuSans-52"/>
     <use x="63.623047" xlink:href="#DejaVuSans-46"/>
     <use x="95.410156" xlink:href="#DejaVuSans-57"/>
     <use x="159.033203" xlink:href="#DejaVuSans-71"/>
    </g>
   </g>
  </g>
  <g id="text_55">
   <!-- Guider Perf Graph -->
   <g transform="translate(194.416875 12.99075)scale(0.08 -0.08)">
    <defs>
     <path d="M 37.109375 75.984375 
L 37.109375 68.5 
L 28.515625 68.5 
Q 23.6875 68.5 21.796875 66.546875 
Q 19.921875 64.59375 19.921875 59.515625 
L 19.921875 54.6875 
L 34.71875 54.6875 
L 34.71875 47.703125 
L 19.921875 47.703125 
L 19.921875 0 
L 10.890625 0 
L 10.890625 47.703125 
L 2.296875 47.703125 
L 2.296875 54.6875 
L 10.890625 54.6875 
L 10.890625 58.5 
Q 10.890625 67.625 15.140625 71.796875 
Q 19.390625 75.984375 28.609375 75.984375 
z
" id="DejaVuSans-102"/>
    </defs>
    <use xlink:href="#DejaVuSans-71"/>
    <use x="77.490234" xlink:href="#DejaVuSans-117"/>
    <use x="140.869141" xlink:href="#DejaVuSans-105"/>
    <use x="168.652344" xlink:href="#DejaVuSans-100"/>
    <use x="232.128906" xlink:href="#DejaVuSans-101"/>
    <use x="293.652344" xlink:href="#DejaVuSans-114"/>
    <use x="334.765625" xlink:href="#DejaVuSans-32"/>
    <use x="366.552734" xlink:href="#DejaVuSans-80"/>
    <use x="423.230469" xlink:href="#DejaVuSans-101"/>
    <use x="484.753906" xlink:href="#DejaVuSans-114"/>
    <use x="525.867188" xlink:href="#DejaVuSans-102"/>
    <use x="561.072266" xlink:href="#DejaVuSans-32"/>
    <use x="592.859375" xlink:href="#DejaVuSans-71"/>
    <use x="670.349609" xlink:href="#DejaVuSans-114"/>
    <use x="711.462891" xlink:href="#DejaVuSans-97"/>
    <use x="772.742188" xlink:href="#DejaVuSans-112"/>
    <use x="836.21875" xlink:href="#DejaVuSans-104"/>
   </g>
  </g>
 </g>
 <defs>
  <clipPath id="pdc1b72a682">
   <rect height="206.6688" width="387.072" x="27.648" y="17.28"/>
  </clipPath>
  <clipPath id="p5783392ace">
   <rect height="98.8416" width="387.072" x="27.648" y="232.9344"/>
  </clipPath>
 </defs>
</svg>
